<svg id="Group_235" data-name="Group 235" xmlns="http://www.w3.org/2000/svg" xmlns:xlink="http://www.w3.org/1999/xlink" width="39.41" height="45" viewBox="0 0 39.41 45">
  <defs>
    <clipPath id="clip-path">
      <rect id="Rectangle_25" data-name="Rectangle 25" width="39.41" height="45" fill="#97a257"/>
    </clipPath>
  </defs>
  <g id="Group_5" data-name="Group 5" clip-path="url(#clip-path)">
    <path id="Path_72" data-name="Path 72" d="M.47,45a1.1,1.1,0,0,1-.447-1.018c.015-3.222-.081-6.447.034-9.664A8.486,8.486,0,0,1,4.845,26.68,7.877,7.877,0,0,1,7.638,26c1.419-.171,2.825-.458,4.232-.723.732-.137,1.453-.332,2.222-.511,0-.718.008-1.433-.009-2.146a.561.561,0,0,0-.194-.314,5.9,5.9,0,0,1-1.914-4.5c.038-1.931.009-3.864.009-5.788-.9-.27-1.238-.647-1.134-1.3a1.735,1.735,0,0,1,.25-.648,6.25,6.25,0,0,0,.96-4.047c-.061-.713.014-1.436-.032-2.151a2.218,2.218,0,0,1,.948-2.008A8.384,8.384,0,0,1,16.332.407a14.026,14.026,0,0,1,8.979.75A6.181,6.181,0,0,1,26.4,1.8a2.322,2.322,0,0,1,1.059,2.089c-.044,1.3-.023,2.607,0,3.909a2.433,2.433,0,0,0,.2.875c.191.458.438.892.66,1.337.546,1.094.307,1.656-.87,2,0,1.939-.025,3.886.008,5.832a5.748,5.748,0,0,1-1.895,4.417.611.611,0,0,0-.212.35c-.02.716-.01,1.433-.01,2.183a32.51,32.51,0,0,0,6.017,1.231A8.58,8.58,0,0,1,39.322,33.4a10.664,10.664,0,0,1,.077,1.225c.006,3.119,0,6.238.011,9.358A1.1,1.1,0,0,1,38.963,45Zm37.5-1.427a1.546,1.546,0,0,0,.023-.184c0-3.09.046-6.181-.017-9.27a7.1,7.1,0,0,0-6-6.615c-1.259-.169-2.522-.321-3.771-.547-.912-.164-1.8-.436-2.759-.674.195,1.727.382,3.4.571,5.065.091.8-.376,1.172-1.118.878-.829-.328-1.66-.652-2.479-1a.416.416,0,0,0-.605.18c-.464.658-.956,1.3-1.445,1.936-.427.559-.894.558-1.32,0-.5-.653-.994-1.3-1.472-1.97a.374.374,0,0,0-.538-.158c-.847.36-1.7.7-2.562,1.035-.675.263-1.152-.095-1.08-.809.089-.873.2-1.745.3-2.618.093-.837.182-1.675.277-2.553-.172.031-.284.049-.4.071-1.749.349-3.5.711-5.248,1.044a18.081,18.081,0,0,0-2.326.371,7.247,7.247,0,0,0-4.563,6.6c-.019,2.973-.005,5.946,0,8.919,0,.1.015.2.022.291h4.9c0-.206,0-.381,0-.555,0-.732-.008-1.465,0-2.2a.683.683,0,0,1,.625-.723.665.665,0,0,1,.737.494,1.432,1.432,0,0,1,.038.434c0,.845,0,1.691,0,2.552h23.9c0-.126,0-.225,0-.325,0-.82-.01-1.64.006-2.46a.683.683,0,0,1,.695-.7.7.7,0,0,1,.7.7c.015.233,0,.468,0,.7q0,1.045,0,2.09Zm-24.582-28.8c0,1.107-.017,2.173,0,3.239A4.174,4.174,0,0,0,15.8,21.9c.455.234.92.451,1.371.692a4.962,4.962,0,0,0,3.789.429,15.994,15.994,0,0,0,2.723-1.183,4.066,4.066,0,0,0,2.361-3.81c.015-.937,0-1.874,0-2.811v-.429h-.679a1.666,1.666,0,0,1-1.356,1.531c-.672.144-1.346.281-2.023.395A1.25,1.25,0,0,1,20.421,15.4c-.008-.434,0-.869,0-1.307H19.013c0,.468.009.906,0,1.343A1.236,1.236,0,0,1,17.5,16.716c-.721-.119-1.437-.268-2.151-.426a1.56,1.56,0,0,1-1.214-1.2c-.03-.106-.055-.213-.082-.317Zm.058-7.069h12.6c0-1.318-.012-2.605.008-3.892a.847.847,0,0,0-.4-.817,10.244,10.244,0,0,0-1.505-.8,12.547,12.547,0,0,0-6.867-.562,8.33,8.33,0,0,0-3.343,1.248,1.06,1.06,0,0,0-.5.993c.035,1.112.014,2.225.016,3.338,0,.157,0,.314,0,.487m6.3,24.235c.711-1.061,1.381-2,1.986-2.98.645-1.044,1.182-2.155,1.851-3.182.516-.792.292-1.607.35-2.535a7.293,7.293,0,0,1-8.435.04c0,.442.024.763-.005,1.078a2.311,2.311,0,0,0,.382,1.443c.746,1.256,1.428,2.552,2.193,3.8.479.778,1.063,1.491,1.678,2.341M12.434,10.526H27c-.214-.43-.395-.827-.612-1.2a.463.463,0,0,0-.348-.172q-6.325-.013-12.65,0a.433.433,0,0,0-.329.135c-.221.39-.409.8-.628,1.241m.976,2.82a1.266,1.266,0,0,0,1.211-.334,1.337,1.337,0,0,1,.908-.338q4.191-.038,8.383,0a1.4,1.4,0,0,1,.939.37c.368.408.751.322,1.172.282v-1.35H13.41Zm1.516,17.2,1.669-.672-1.276-2.224-.081.037-.312,2.859m9.584,0-.319-2.869-.086-.012L22.84,29.881l1.669.668M21.841,15.275a.475.475,0,0,0,.088.011c.444-.084.887-.17,1.331-.254.749-.141.773-.177.62-.936H21.841ZM15.5,14.087c.091.3-.223.709.233.839.6.171,1.223.255,1.845.378V14.087Z" transform="translate(0 0)" fill="#97a257"/>
    <path id="Path_73" data-name="Path 73" d="M212.687,287.451c.659,0,1.318-.009,1.977,0a.709.709,0,0,1,.716,1.036.307.307,0,0,1-.012.042,1.835,1.835,0,0,0-.053,1.641,2.678,2.678,0,0,1-1.127,3.143,2.8,2.8,0,0,1-3.35-.2,2.734,2.734,0,0,1-.764-3.221,1,1,0,0,0,.019-.941,3.842,3.842,0,0,1-.2-.534.693.693,0,0,1,.685-.96c.7-.017,1.406,0,2.108,0m-1.15,1.428a1.208,1.208,0,0,1-.13,1.481,1.3,1.3,0,0,0,.355,1.689,1.375,1.375,0,0,0,1.773,0,1.3,1.3,0,0,0,.35-1.69,1.2,1.2,0,0,1-.127-1.477Z" transform="translate(-185.198 -253.699)" fill="#97a257"/>
    <path id="Path_74" data-name="Path 74" d="M212.719,348.75c-.674,0-1.347.005-2.021,0-.509,0-.825-.291-.814-.719a.711.711,0,0,1,.8-.683q2-.008,4,0c.511,0,.826.29.814.718a.715.715,0,0,1-.805.684c-.659.007-1.318,0-1.977,0" transform="translate(-185.242 -306.562)" fill="#97a257"/>
    <path id="Path_75" data-name="Path 75" d="M157.424,293.446c.22,0,.44-.011.659,0a.7.7,0,0,1,.712.687.687.687,0,0,1-.688.708c-.482.019-.967.02-1.449,0a.681.681,0,0,1-.667-.683.692.692,0,0,1,.688-.709c.248-.016.5,0,.747,0" transform="translate(-137.676 -258.99)" fill="#97a257"/>
    <path id="Path_76" data-name="Path 76" d="M157.4,323.394c.249,0,.5-.017.746,0a.689.689,0,0,1,.652.7.681.681,0,0,1-.66.69c-.5.023-1,.023-1.493,0a.679.679,0,0,1-.651-.7.688.688,0,0,1,.66-.691c.247-.02.5,0,.747,0" transform="translate(-137.677 -285.42)" fill="#97a257"/>
    <path id="Path_77" data-name="Path 77" d="M157.425,353.324a6.34,6.34,0,0,1,.746.006.694.694,0,0,1,0,1.383,14.6,14.6,0,0,1-1.537,0,.694.694,0,0,1,0-1.383,6.928,6.928,0,0,1,.79-.006" transform="translate(-137.686 -311.834)" fill="#97a257"/>
    <path id="Path_78" data-name="Path 78" d="M152,17.982c.454,0,.908-.01,1.361,0a.693.693,0,0,1,.748.738c.013.468.016.937,0,1.4a1.875,1.875,0,0,1-.818,1.391c-1.064.862-1.5.86-2.567,0a1.954,1.954,0,0,1-.832-1.741c.025-.349,0-.7.008-1.053a.694.694,0,0,1,.742-.744c.453-.013.907,0,1.361,0m-.653,1.421a.891.891,0,0,0,.506,1.188.621.621,0,0,0,.45-.092c.457-.241.465-.646.365-1.1Z" transform="translate(-132.291 -15.867)" fill="#97a257"/>
  </g>
</svg>