<svg id="Group_240" data-name="Group 240" xmlns="http://www.w3.org/2000/svg" xmlns:xlink="http://www.w3.org/1999/xlink" width="42.713" height="36.084" viewBox="0 0 42.713 36.084">
  <defs>
    <clipPath id="clip-path">
      <rect id="Rectangle_37" data-name="Rectangle 37" width="42.713" height="36.084" fill="#97a257"/>
    </clipPath>
  </defs>
  <g id="Group_18" data-name="Group 18" clip-path="url(#clip-path)">
    <path id="Path_105" data-name="Path 105" d="M42.713,31.62A14.412,14.412,0,0,1,41.7,33.514a6.088,6.088,0,0,1-5.046,2.555c-1.223.02-2.447,0-3.671,0a.646.646,0,0,1-.715-.447c-.141-.458.179-.817.759-.821,1.14-.008,2.281.015,3.42-.011a6.514,6.514,0,0,0,1.524-.178,4.9,4.9,0,0,0,3.149-2.541H1.616a4.035,4.035,0,0,0,1.2,1.544,4.86,4.86,0,0,0,3.009,1.173c.222.008.445.01.667.01q11.721,0,23.443,0a1.087,1.087,0,0,1,.6.083.879.879,0,0,1,.368.61c-.017.2-.273.4-.47.537-.118.08-.324.039-.49.039q-11.8,0-23.61,0A6.2,6.2,0,0,1,1.06,33.572,9.5,9.5,0,0,1,.055,31.625c-.188-.437.126-.82.628-.839.456-.017.913,0,1.393,0-.017-.352-.046-.666-.046-.98q0-7.508,0-15.017a3.077,3.077,0,0,1,.038-.538.556.556,0,0,1,.581-.492.564.564,0,0,1,.621.5,2.883,2.883,0,0,1,.038.538q0,7.508,0,15.017c0,.833.139.975.96.975H8.948c-.153-.134-.234-.216-.325-.284A7.858,7.858,0,0,1,5.7,21.941,7.544,7.544,0,0,1,9.372,17.29a.8.8,0,0,0,.493-.833c-.033-1.278-.013-2.558-.012-3.837,0-.765.189-.95.965-.951h1.856c0-1.029.02-2.013-.011-3-.011-.358-.3-.5-.652-.5H9.634q-2.753,0-5.506,0c-.64,0-.814.174-.817.816,0,.834,0,1.669,0,2.5a2.458,2.458,0,0,1-.027.415.58.58,0,0,1-.629.539.573.573,0,0,1-.6-.529,1.951,1.951,0,0,1-.028-.331c0-.876-.009-1.752,0-2.628a1.874,1.874,0,0,1,2.045-2.05c.262,0,.524,0,.82,0,.009-.164.023-.3.023-.431,0-.862-.011-1.724.005-2.586a1.829,1.829,0,0,1,1.8-1.868c.847-.036,1.7-.037,2.544,0a1.846,1.846,0,0,1,1.806,1.954c.015.958,0,1.916,0,2.932.333,0,.634-.005.935,0a1.829,1.829,0,0,1,1.934,1.937c.013.778,0,1.557,0,2.336v.488H15.33c1.4,0,1.4,0,1.4,1.427v2.057c1.59-1.877,3.613-2.273,5.84-2.177-.4-.319-.825-.618-1.207-.962a8.906,8.906,0,0,1-3.056-7.391c.029-.616.19-.771.813-.817a8.879,8.879,0,0,1,5.048,1.134c.133.074.265.151.4.225a.378.378,0,0,0,.082.011c.112-.352.218-.717.343-1.074A8.89,8.89,0,0,1,27.62.256a.67.67,0,0,1,1.062.011,9,9,0,0,1,2.854,4.6c.027.1.068.206.083.252.835-.339,1.638-.722,2.477-.993a7.751,7.751,0,0,1,3.173-.317c.5.05.677.238.7.747a8.929,8.929,0,0,1-4.049,8.23c-.075.052-.147.11-.321.242.638,0,1.158-.006,1.677,0a5.69,5.69,0,0,1,5.643,4.421,3.992,3.992,0,0,1,.123.905c.011,2.725.026,5.45,0,8.175a5.414,5.414,0,0,1-1.8,3.987,1.643,1.643,0,0,1-.205.144l.039.114h.508c.737,0,1.474.016,2.211-.007a.946.946,0,0,1,.917.43ZM21.1,25.478c.146.011.254.025.363.025q5.442,0,10.884,0a2.9,2.9,0,0,0,.742-.087c1.019-.274,1.467-1.082,1.438-2.553a1.965,1.965,0,0,0-1.536-2.014,3.935,3.935,0,0,0-.828-.065q-5.192-.006-10.384,0c-.5,0-.772-.225-.781-.613a.625.625,0,0,1,.706-.644q5.463,0,10.926,0a3.064,3.064,0,0,1,1.857.644c1.3.969,1.559,2.514,1.165,4.2a3.173,3.173,0,0,1-3.335,2.406q-5.588.005-11.176,0a.466.466,0,0,0-.529.327,7.691,7.691,0,0,1-2.679,3.436,3.573,3.573,0,0,0-.265.248h.379q8.591,0,17.182,0a4.428,4.428,0,0,0,4.565-4.585q.005-3.649,0-7.3a4.83,4.83,0,0,0-.044-.789,4.413,4.413,0,0,0-4.558-3.795q-6.9-.012-13.8.006a5.442,5.442,0,0,0-1.478.194,4.265,4.265,0,0,0-2.869,2.658A7.892,7.892,0,0,1,20.4,20.678a8.119,8.119,0,0,1,.7,4.8m-9.975-9.529a4.555,4.555,0,0,0,.005.7c.143.862-.239,1.314-1.018,1.69a6.579,6.579,0,0,0-3.425,6.533,6.64,6.64,0,1,0,12.843-3,6.4,6.4,0,0,0-3.35-3.7,1.1,1.1,0,0,1-.736-1.237c.033-.324.006-.655.006-.994Zm17.025-3.193a7.733,7.733,0,0,0-.027-11.219,7.783,7.783,0,0,0,.027,11.219m1.569.206c4.685-.413,7.325-4.862,6.935-7.909a7.515,7.515,0,0,0-4.637,1.469.635.635,0,0,0-.187.452,10.128,10.128,0,0,1-.447,2.953,9.551,9.551,0,0,1-1.664,3.035m-10.139-7.9A7.683,7.683,0,0,0,26.5,12.929c-.005-.025,0-.057-.017-.075a9.257,9.257,0,0,1-2.03-5.992.434.434,0,0,0-.137-.314,7.564,7.564,0,0,0-4.736-1.491m-9.8,1.827c0-1.055.015-2.09-.009-3.124-.008-.329-.288-.47-.588-.475Q8,3.264,6.81,3.285a.542.542,0,0,0-.6.516C6.184,4.821,6.2,5.842,6.2,6.884Zm5.658,6.067H11.16v1.69h4.276Z" transform="translate(0 0)" fill="#97a257"/>
  </g>
</svg>