<svg id="Group_108" data-name="Group 108" xmlns="http://www.w3.org/2000/svg" xmlns:xlink="http://www.w3.org/1999/xlink" width="38.048" height="38.272" viewBox="0 0 38.048 38.272">
  <defs>
    <clipPath id="clip-path">
      <rect id="Rectangle_74" data-name="Rectangle 74" width="38.048" height="38.272" fill="#97a257"/>
    </clipPath>
  </defs>
  <g id="Group_107" data-name="Group 107" clip-path="url(#clip-path)">
    <path id="Path_159" data-name="Path 159" d="M17.743,94.281c.535.1.651.463.646.946-.016,1.545,0,3.09-.007,4.636,0,.627-.213.841-.837.842q-4.276,0-8.551,0c-.631,0-.844-.211-.845-.833q0-2.338,0-4.676c0-.592.079-.707.634-.928,0-.5.021-1.005-.006-1.509a1.987,1.987,0,0,0-.753-1.4c-1.358-1.2-2.7-2.412-4.065-3.607A3.661,3.661,0,0,1,2.8,85.882Q1.476,80.888.131,75.9a2.613,2.613,0,0,1,.978-3.009.522.522,0,0,0,.156-.363,2.587,2.587,0,0,1,2.1-2.6,2.656,2.656,0,0,1,2.923,1.828q1.358,3.962,2.743,7.915a.771.771,0,0,0,.312.375c1.785,1.06,3.578,2.106,5.368,3.157a5.768,5.768,0,0,1,3.029,5.3c0,1.918,0,3.835,0,5.769m-1.28.01c0-2.035.022-4.032-.007-6.029a4.383,4.383,0,0,0-2.1-3.777c-.3-.2-.616-.37-.926-.551-1.585-.929-3.168-1.862-4.757-2.784a1.279,1.279,0,1,0-1.293,2.2c1.149.672,2.306,1.331,3.456,2,.44.256.564.606.356.954s-.569.4-1.01.144c-1.154-.664-2.311-1.323-3.457-2A2.546,2.546,0,0,1,5.656,81.1a.648.648,0,0,0,.057-.411c-.646-2.028-1.3-4.055-1.968-6.074a1.241,1.241,0,0,0-1.111-.854,1.252,1.252,0,0,0-1.3,1.668c.9,3.368,1.81,6.733,2.705,10.1A2.475,2.475,0,0,0,4.817,86.8c1.35,1.189,2.684,2.4,4.036,3.582a3.355,3.355,0,0,1,1.215,2.709c-.008.4,0,.791,0,1.2ZM9.451,99.4h7.623V95.607H9.451ZM2.568,72.446A2.757,2.757,0,0,1,5.1,74.6c.248.854.539,1.7.813,2.542q.446,1.378.9,2.756l.848-.253c-.186-.533-.365-1.044-.542-1.557Q6.1,75.137,5.081,72.181A1.393,1.393,0,0,0,3.574,71.2a1.252,1.252,0,0,0-1.006,1.245" transform="translate(0 -62.433)" fill="#97a257"/>
    <path id="Path_160" data-name="Path 160" d="M193.663,94.289a.748.748,0,0,1,.644.849c-.012,1.585,0,3.171-.006,4.756,0,.6-.221.815-.823.815q-4.3,0-8.592,0c-.6,0-.817-.218-.818-.819,0-1.585.007-3.171-.006-4.756a.746.746,0,0,1,.645-.846c0-1.024-.007-2.048,0-3.071.011-1.225-.051-2.458.073-3.672a5.4,5.4,0,0,1,2.766-4.213c1.814-1.088,3.652-2.138,5.468-3.223a1.071,1.071,0,0,0,.425-.522c.926-2.62,1.835-5.246,2.746-7.872a2.555,2.555,0,0,1,5,.792.619.619,0,0,0,.2.422,2.565,2.565,0,0,1,.953,2.874q-1.077,4.049-2.164,8.094c-.179.668-.36,1.336-.53,2.006a3.5,3.5,0,0,1-1.108,1.808c-1.32,1.162-2.616,2.351-3.95,3.5a2.341,2.341,0,0,0-.928,2.052c.024.331,0,.665,0,1.03m-1.279.015c0-.442,0-.852,0-1.262a3.316,3.316,0,0,1,1.191-2.638c1.361-1.2,2.708-2.409,4.067-3.608a2.418,2.418,0,0,0,.763-1.233c.892-3.356,1.8-6.708,2.693-10.063a1.293,1.293,0,0,0-.819-1.7,1.351,1.351,0,0,0-1.633.982c-.621,1.91-1.245,3.82-1.846,5.736a1.062,1.062,0,0,0,.041.668,2.517,2.517,0,0,1-.89,3.119c-1.25.786-2.545,1.5-3.829,2.233a.611.611,0,0,1-.864-.233.63.63,0,0,1,.233-.868c.077-.053.16-.1.24-.143q1.643-.948,3.286-1.9a1.292,1.292,0,0,0,.731-.986,1.221,1.221,0,0,0-.546-1.247,1.266,1.266,0,0,0-1.431,0q-2.721,1.6-5.444,3.19a4.468,4.468,0,0,0-2.339,4.088c0,1.813,0,3.625,0,5.438V94.3Zm.622,1.317H185.38V99.41h7.626Zm2.625-15.715c.04-.113.079-.211.111-.311.561-1.731,1.107-3.467,1.692-5.19a3.581,3.581,0,0,1,.617-1.1,2.5,2.5,0,0,1,1.821-.851,1.23,1.23,0,0,0-.977-1.246,1.341,1.341,0,0,0-1.494.922q-.919,2.634-1.828,5.271c-.259.748-.52,1.495-.784,2.255l.842.247" transform="translate(-164.406 -62.439)" fill="#97a257"/>
    <path id="Path_161" data-name="Path 161" d="M86.76,1.881A6.617,6.617,0,0,1,90.33.083,6.406,6.406,0,0,1,95.674,11.07q-4.129,4.121-8.251,8.25c-.543.543-.789.543-1.329,0-2.815-2.817-5.653-5.611-8.439-8.456A6.39,6.39,0,0,1,86.43,1.59l.331.291m.008,16.284,2.626-2.629c1.873-1.876,3.769-3.73,5.613-5.634a5.1,5.1,0,0,0-6.592-7.716,9.722,9.722,0,0,0-1.082.942c-.436.408-.729.412-1.162-.012-.152-.149-.3-.3-.456-.449a5.114,5.114,0,0,0-7.068,7.391c2.616,2.64,5.253,5.259,7.881,7.887.065.065.134.124.238.22" transform="translate(-67.734 0)" fill="#97a257"/>
    <path id="Path_162" data-name="Path 162" d="M142.575,47.263c0,.616,0,1.186,0,1.756s-.225.8-.8.8q-1.139.005-2.277,0c-.525,0-.757-.234-.762-.754-.006-.584,0-1.168,0-1.8-.579,0-1.133,0-1.687,0-.673,0-.871-.2-.871-.887,0-.733,0-1.465,0-2.2,0-.52.237-.748.763-.752.583-.005,1.166,0,1.794,0,0-.6,0-1.168,0-1.736,0-.6.217-.82.815-.822q1.119,0,2.237,0c.551,0,.78.228.784.773,0,.582,0,1.165,0,1.785.607,0,1.176,0,1.745,0,.6,0,.811.221.813.825,0,.746,0,1.492,0,2.238,0,.545-.233.77-.783.774-.572,0-1.143,0-1.774,0m-5.1-1.279c.591,0,1.148,0,1.7,0,.624,0,.834.213.836.84,0,.566,0,1.133,0,1.685H141.3c0-.592,0-1.15,0-1.709,0-.6.218-.814.819-.816.568,0,1.136,0,1.713,0V44.7c-.582,0-1.139,0-1.7,0-.624,0-.835-.213-.837-.84,0-.566,0-1.133,0-1.686h-1.279c0,.591,0,1.15,0,1.709,0,.6-.22.814-.82.817-.568,0-1.136,0-1.72,0Z" transform="translate(-121.633 -36.5)" fill="#97a257"/>
  </g>
</svg>