<svg id="Group_236" data-name="Group 236" xmlns="http://www.w3.org/2000/svg" xmlns:xlink="http://www.w3.org/1999/xlink" width="38.657" height="45" viewBox="0 0 38.657 45">
  <defs>
    <clipPath id="clip-path">
      <rect id="Rectangle_32" data-name="Rectangle 32" width="38.657" height="45" fill="#97a257"/>
    </clipPath>
  </defs>
  <g id="Group_12" data-name="Group 12" clip-path="url(#clip-path)">
    <path id="Path_93" data-name="Path 93" d="M93.986,38.228c.639.87.628,1.076-.157,1.712-.655.53-1.331,1.036-2.016,1.526a.492.492,0,0,0-.242.575c.125.643.22,1.292.311,1.941a.8.8,0,0,1-.649,1.012c-.444.052-.756-.251-.836-.8s-.16-1.075-.246-1.652c-.614.28-1.173.543-1.738.791A8.723,8.723,0,0,1,82.2,43.7a5.462,5.462,0,0,1-2.162-1.172.771.771,0,0,0-.36-.195,3.886,3.886,0,0,1-2.941-3.638c-.093-1.62-.041-3.248-.052-4.873,0-.2,0-.4,0-.633-.174-.015-.312-.022-.447-.039a.738.738,0,0,1-.74-.8.715.715,0,0,1,.787-.691c.891-.013,1.781-.005,2.672-.006h.58V29.909c0-.313,0-.625,0-.938,0-.716.239-.951.954-.957.293,0,.587,0,.909,0v-.73c-.613,0-1.218,0-1.823,0s-.941-.277-.949-.737.35-.758.928-.761c.828,0,1.656-.006,2.484,0,.619,0,.877.268.888.887.007.391,0,.781.007,1.172a1.077,1.077,0,0,0,.046.169h.8c.862,0,1.066.209,1.068,1.087,0,.826,0,1.652,0,2.53.2.01.368.024.533.025q2.18,0,4.359,0a2.588,2.588,0,0,1,.467.022.732.732,0,0,1,.117,1.405,2.071,2.071,0,0,1-.647.069q-5.438.006-10.875,0h-.578c-.016.164-.038.284-.038.4q0,2.25,0,4.5a3.18,3.18,0,0,0,.771,2.2c0-.283-.006-.441,0-.6a1.857,1.857,0,0,1,2.309-1.8,30.574,30.574,0,0,0,3.384.373A4.731,4.731,0,0,0,88,37c1.255-1.081,2.5-2.178,3.747-3.262a.642.642,0,0,0,.2-.867c-.461-.884-.921-1.769-1.389-2.669-.536.1-1.052.207-1.573.28-.575.081-.872-.123-.967-.688-.362-2.155-.756-4.306-1.036-6.472a24.034,24.034,0,0,1-.027-3.044c0-.959,0-.959-1.037-1.24v.692c0,1.141,0,2.281,0,3.422,0,.575-.262.856-.816.858q-3.351.012-6.7,0c-.544,0-.811-.291-.816-.866-.009-1.187,0-2.375,0-3.562v-.6a9.267,9.267,0,0,0-.915.409c-.084.048-.121.232-.124.356-.013.531.023,1.064-.011,1.593-.159,2.539-.333,5.077-.506,7.615-.027.389-.066.778-.11,1.166-.1.9-.247,1.023-1.212,1-.164.529-.333,1.074-.5,1.618-1.064,3.4-.454,2.378-2.92,4.909-.694.713-.7.707-.191,1.588.468.81.417,1.033-.363,1.573-.655.454-1.307.91-1.966,1.357a.767.767,0,0,1-1.155-.108c-.267-.377-.163-.792.3-1.117.56-.4,1.126-.783,1.732-1.2-.086-.157-.163-.3-.245-.446-.782-1.35-1.561-2.7-2.351-4.047-.219-.373-.381-.739-.037-1.112s.722-.281,1.19-.005a7.254,7.254,0,0,0,.6-1.085c.427-1.205.8-2.431,1.214-3.639a.578.578,0,0,0-.155-.7,3.354,3.354,0,0,1-.376-.477,1.408,1.408,0,0,1-.189-1.443c.534-1.448.984-2.926,1.5-4.382A5.781,5.781,0,0,1,74,18.932c1.636-.733,3.268-1.477,4.91-2.2a.561.561,0,0,0,.361-.556,2.606,2.606,0,0,0-.923-2.364,8.587,8.587,0,0,1-2.539-5.88,5.146,5.146,0,0,1,4.483-5.477A1.708,1.708,0,0,0,81.5,1.687,4.067,4.067,0,0,1,86.253.258a3.985,3.985,0,0,1,1.63,6.448,1.049,1.049,0,0,0-.211.522A17.519,17.519,0,0,1,87.3,9.99a8.133,8.133,0,0,1-2.906,4.526,3.624,3.624,0,0,0-.1,2.049,1.624,1.624,0,0,0,.375.189c1.549.7,3.093,1.412,4.649,2.1a6.306,6.306,0,0,1,3.335,3.371c.686,1.537,1.507,3.013,2.283,4.509a.962.962,0,0,1-.029,1.133.586.586,0,0,0,.031.493c.5.973,1.017,1.933,1.526,2.9a4.479,4.479,0,0,1-1.171,5.881l-1.308,1.092M85.874,9.912c-.977-.6-1.866-1.054-2.651-1.647s-1.5-1.342-2.231-2.01a8.32,8.32,0,0,1-3.426,3.272,9.993,9.993,0,0,0,1.517,2.944,3.225,3.225,0,0,0,5.317-.019,21.781,21.781,0,0,0,1.474-2.54M90.7,36.642l-1.631,1.419a6.342,6.342,0,0,1-4.447,1.679c-1.177-.035-2.352-.221-3.524-.37-.53-.067-.652,0-.651.538a2.044,2.044,0,0,0,1.146,1.9,6.761,6.761,0,0,0,4.4.695,12.454,12.454,0,0,0,4.787-2.146c.632-.421,1.231-.891,1.87-1.358L90.7,36.642M84.419,22.493c0-1.2-.036-2.356.016-3.506A.846.846,0,0,0,83.783,18a1.524,1.524,0,0,1-1.074-1.627c.012-.355,0-.711,0-1.051h-1.94c0,.424.008.843,0,1.262a1.23,1.23,0,0,1-.758,1.245c-.945.281-1.018.914-.936,1.706a9.549,9.549,0,0,1,.006.983v1.974Zm-9.412-2.356a4.237,4.237,0,0,0-2.664,2.447c-.563,1.484-1.047,3-1.549,4.505a.57.57,0,0,0,.05.463,6.191,6.191,0,0,0,3.63,1.944,69.9,69.9,0,0,0,.533-9.359m13.5.021c-.328,3,.48,5.827.878,8.757a10.561,10.561,0,0,0,3.725-1.433c.306-.21.332-.39.16-.721-.76-1.466-1.483-2.951-2.229-4.424a4.377,4.377,0,0,0-2.535-2.178M86.129,8.273A3.654,3.654,0,0,0,84.2,4.368a5.4,5.4,0,0,0-5,.046A3.5,3.5,0,0,0,77.36,7.944a4.753,4.753,0,0,0,.717-.54,22.227,22.227,0,0,0,1.661-1.951,1.55,1.55,0,0,1,2.7-.125,22.777,22.777,0,0,0,2.291,2.184,7.714,7.714,0,0,0,1.4.76m6.886,28.813c.586-.5,1.149-.919,1.649-1.406a2.662,2.662,0,0,0,.768-2.993c-.506-1.275-1.217-2.469-1.838-3.7l-1.563.76c.025.06.035.089.049.117.387.747.778,1.491,1.161,2.24a2.076,2.076,0,0,1-.523,2.768c-.289.259-.581.515-.884.784l1.18,1.427m-21.621-7.1c-.272.825-.553,1.635-.807,2.452A5.789,5.789,0,0,1,69.08,35.3a.347.347,0,0,0-.083.315c.246.465.519.915.821,1.435a6.192,6.192,0,0,1,.618-.666,6.287,6.287,0,0,0,2.26-3.81c.128-.618.353-1.215.531-1.813l-1.833-.77M87.085,5.152a2.368,2.368,0,0,0-.862-3.259c-1.1-.674-2.757-.431-3.267.495a5.543,5.543,0,0,1,4.129,2.765M81.058,29.54v2.113c.7,0,1.381.007,2.062-.01a.316.316,0,0,0,.214-.222c.018-.619.01-1.238.01-1.881Z" transform="translate(-58.433 0)" fill="#97a257"/>
    <path id="Path_94" data-name="Path 94" d="M7.753,108.64v.591q0,8.883-.006,17.765a1.175,1.175,0,0,0,.313.834,3.516,3.516,0,0,1,.42,4.626,2.632,2.632,0,0,0-.763,1.928c.037.4-.3.637-.709.663a.718.718,0,0,1-.74-.694c-.022-.245,0-.495,0-.725a3.3,3.3,0,0,1-.3-6.412.382.382,0,0,0,.293-.442c-.006-1.109,0-2.219,0-3.328V108.64H5.7c-1.594,0-3.187-.005-4.781,0-.417,0-.761-.108-.88-.535a.742.742,0,0,1,.449-.921.536.536,0,0,0,.19-.406c.018-.812,0-1.625.011-2.437.005-.669.271-.937.946-.939q5.367-.016,10.734-.02c.672,0,.944.273.949.937.006.812,0,1.625,0,2.437,0,.21,0,.374.256.475a.667.667,0,0,1,.4.85.709.709,0,0,1-.767.554q-2.437,0-4.875,0H7.753m4.036-3.72H10.521c0,.376.007.717,0,1.058a.761.761,0,0,1-.749.837.785.785,0,0,1-.747-.851c-.01-.339,0-.679,0-1.041H7.75c0,.374.012.716,0,1.056a.773.773,0,0,1-.758.837c-.432-.006-.718-.332-.734-.856-.01-.338,0-.677,0-1.032H4.972c0,.389.013.747,0,1.1A.748.748,0,1,1,3.476,106c-.01-.354,0-.708,0-1.071H2.212v2.181H11.79ZM7.647,130.594a2.637,2.637,0,0,0-.777-1.838.593.593,0,0,0-.455-.1,1.8,1.8,0,0,0-1,2.768,1.236,1.236,0,0,0,1.162.647c.508-.056.731-.443.906-.848a3.428,3.428,0,0,0,.166-.631" transform="translate(0 -90.436)" fill="#97a257"/>
    <path id="Path_95" data-name="Path 95" d="M118.528,281.429c-.176,1.088-.383,2.114-.5,3.15-.179,1.593-.308,3.192-.432,4.791-.043.553-.275.889-.73.9-.472.015-.768-.321-.775-.9a40.259,40.259,0,0,1,.7-6.64c.076-.492.156-.986.266-1.471a.735.735,0,0,1,.841-.576.744.744,0,0,1,.631.747" transform="translate(-101.55 -245.517)" fill="#97a257"/>
  </g>
</svg>