<svg id="Group_239" data-name="Group 239" xmlns="http://www.w3.org/2000/svg" xmlns:xlink="http://www.w3.org/1999/xlink" width="41.842" height="45" viewBox="0 0 41.842 45">
  <defs>
    <clipPath id="clip-path">
      <rect id="Rectangle_36" data-name="Rectangle 36" width="41.842" height="45" fill="#97a257"/>
    </clipPath>
  </defs>
  <g id="Group_16" data-name="Group 16" clip-path="url(#clip-path)">
    <path id="Path_101" data-name="Path 101" d="M15.105,26.45c.231.265.36.418.494.566a42.22,42.22,0,0,1,7.738,11.2,14.373,14.373,0,0,1,1.417,5.91,1.071,1.071,0,0,1-.439.761.928.928,0,0,1-.769-.08.768.768,0,0,1-.3-.57c-.155-3.726-1.845-6.858-3.821-9.869a48.227,48.227,0,0,0-6.26-7.618,1.327,1.327,0,0,0-.823-.349c-1.228-.037-2.458-.016-3.809-.016.166.248.28.427.4.6a52.246,52.246,0,0,1,6.447,11.5c.676,1.774,1.1,3.646,1.606,5.481a.778.778,0,1,1-1.509.331,32.5,32.5,0,0,0-4.428-11.1c-1.308-2.21-2.8-4.311-4.236-6.443a.962.962,0,0,0-.681-.347c-1.283-.033-2.568-.016-3.96-.016.167.292.291.514.42.734A55.759,55.759,0,0,1,8.677,41.24c.237.914.417,1.843.6,2.769a.777.777,0,1,1-1.519.3C6.549,37.728,3.679,31.841.216,26.2c-.468-.761-.153-1.351.749-1.358,2.006-.015,4.012-.005,6.018-.005h.751c0-1.265,0-2.489-.009-3.713a.374.374,0,0,0-.208-.277,2.559,2.559,0,0,1-1.829-2.37,31.893,31.893,0,0,1-.2-4.406A25.442,25.442,0,0,1,6.493,7.245,7.091,7.091,0,0,1,7.31,5.451,1.315,1.315,0,0,1,9.7,5.438a4.063,4.063,0,0,1,.575,1.1,27.505,27.505,0,0,1,1.1,11.763,2.727,2.727,0,0,1-1.865,2.546.436.436,0,0,0-.209.339c-.015,1.189-.009,2.377-.009,3.609h3.06V22.517c-.2,0-.4,0-.595,0-.4.011-.778-.112-.838-.512a1.212,1.212,0,0,1,.256-.9c1.011-1.075,2.165-2.027,3.091-3.166A4.288,4.288,0,0,1,18.3,16.276c1.748.144,3.517.045,5.277.024a1.589,1.589,0,0,1,1.255.51c1.348,1.382,2.722,2.738,4.09,4.1.315.314.654.623.44,1.124s-.659.5-1.109.484c-.093,0-.187.008-.328.016V24.8h6.116c.013-.146.037-.291.037-.437,0-1.533.01-3.066-.009-4.6a.7.7,0,0,0-.237-.54,2.83,2.83,0,0,1-1.546-2,17.983,17.983,0,0,1-.473-3.3A39.6,39.6,0,0,1,32.84,2.947,7.953,7.953,0,0,1,33.788.724a1.149,1.149,0,0,1,2.135,0,21.9,21.9,0,0,1,1.212,3.209,6.113,6.113,0,0,1,.174.822,1.851,1.851,0,0,1,2.258,1.25,13.252,13.252,0,0,1,1.15,4.249,25.308,25.308,0,0,1,.168,7.07,7.391,7.391,0,0,1-.584,2,2.679,2.679,0,0,1-.989,1.194,1.078,1.078,0,0,0-.585,1.172c.032,1.018.009,2.038.009,3.147.691,0,1.348-.044,1.994.018a1.591,1.591,0,0,1,.974.4c.307.342.038.733-.189,1.077a83.9,83.9,0,0,0-7.45,13.16,44.253,44.253,0,0,0-1.5,4.68c-.132.439-.288.808-.793.81-.534,0-.727-.364-.809-.847a45.3,45.3,0,0,0-.88-4.849c-1.957-6.869-6.414-11.137-13.448-12.623-.455-.1-.922-.134-1.529-.219m11.7-.021h-5.6A19.092,19.092,0,0,1,31.981,40.424a84.475,84.475,0,0,1,7.612-14.037c-1.16,0-2.2-.023-3.238.014a1.754,1.754,0,0,0-.927.3,9.381,9.381,0,0,0-3.635,5.125c-.173.617-.541.869-1.009.731s-.646-.537-.484-1.144a10.736,10.736,0,0,1,2.611-4.582c.109-.116.209-.241.382-.443-1.2,0-2.293.075-3.375-.023a1.585,1.585,0,0,0-1.763,1.148,4.3,4.3,0,0,0-.264,1.09c-.078.6-.336.9-.819.874s-.782-.362-.709-.957c.085-.7.288-1.383.444-2.09M34.986,1.87l-.218.03c-.119.356-.261.707-.352,1.07a37.518,37.518,0,0,0-1.05,10.973,18.526,18.526,0,0,0,.5,3.062.987.987,0,0,0,.992.857,1,1,0,0,0,1-.848,13.48,13.48,0,0,0,.472-2.5,39.838,39.838,0,0,0-.68-10.108c-.165-.857-.441-1.694-.666-2.54M26.764,20.926c-.99-.985-1.861-1.878-2.767-2.732a1.272,1.272,0,0,0-.778-.315c-1.474-.03-2.959.1-4.419-.045a3.835,3.835,0,0,0-3.8,1.59,14.989,14.989,0,0,1-1.476,1.5ZM8.625,6.428l-.214.025c-.146.406-.321.8-.434,1.219a29.621,29.621,0,0,0-1,8.749,11.345,11.345,0,0,0,.346,2.229,1.051,1.051,0,0,0,1.172.777,1.067,1.067,0,0,0,1.182-.762A8.145,8.145,0,0,0,10,17.005a29.937,29.937,0,0,0-.7-8.33c-.169-.761-.445-1.5-.672-2.247m17.69,16.117H13.938c0,.625.023,1.225-.008,1.823-.021.415.153.508.529.506q5.585-.029,11.171-.036h.685ZM38.178,6.374l-.334.008a4.022,4.022,0,0,0-.189.933c.077,2.23.243,4.458.26,6.687A8.161,8.161,0,0,1,37,18.229c-.051.089-.1.259-.06.307.263.3.512.712.847.813a1.088,1.088,0,0,0,.935-.412,4.05,4.05,0,0,0,.57-1.516,22.574,22.574,0,0,0-.284-7.9c-.2-1.064-.552-2.1-.835-3.148m-1,18.43c0-1.271,0-2.509-.007-3.747a.41.41,0,0,0-.155-.264c-.441-.358-.893-.7-1.327-1.043V24.8Z" transform="translate(-0.001 0)" fill="#97a257"/>
    <path id="Path_102" data-name="Path 102" d="M148.172,43.908a2.7,2.7,0,1,1,2.7,2.7,2.675,2.675,0,0,1-2.7-2.7m3.866,0a1.164,1.164,0,1,0-1.151,1.164,1.2,1.2,0,0,0,1.151-1.164" transform="translate(-125.7 -34.961)" fill="#97a257"/>
    <path id="Path_103" data-name="Path 103" d="M104.51,9.066c.342.521,1.284.945.544,1.683s-1.165-.2-1.684-.547c-.52.349-.946,1.286-1.683.544s.2-1.164.55-1.681c-.35-.518-1.286-.943-.548-1.683s1.164.193,1.675.549c.529-.347.953-1.289,1.691-.55s-.2,1.163-.545,1.685" transform="translate(-86.033 -6.028)" fill="#97a257"/>
    <path id="Path_104" data-name="Path 104" d="M103.639,67.538a.775.775,0,1,1-.762-.758.768.768,0,0,1,.762.758" transform="translate(-86.606 -56.652)" fill="#97a257"/>
  </g>
</svg>