<svg id="Group_112" data-name="Group 112" xmlns="http://www.w3.org/2000/svg" xmlns:xlink="http://www.w3.org/1999/xlink" width="44.454" height="35.083" viewBox="0 0 44.454 35.083">
  <defs>
    <clipPath id="clip-path">
      <rect id="Rectangle_76" data-name="Rectangle 76" width="44.454" height="35.084" fill="#97a257"/>
    </clipPath>
  </defs>
  <g id="Group_111" data-name="Group 111" clip-path="url(#clip-path)">
    <path id="Path_170" data-name="Path 170" d="M44.454,9.639a2.956,2.956,0,0,1-1.631,2.169,4.318,4.318,0,0,1-1.588.334c-3.979.027-7.958.015-11.937.015h-.6c.226.145.347.229.474.3q5.2,3,10.4,6a2.963,2.963,0,0,1,1.669,2.692,2.924,2.924,0,0,1-4.254,2.612c-1.1-.568-2.161-1.227-3.238-1.848q-3.756-2.166-7.511-4.335c-.131-.075-.266-.142-.495-.262.123.23.192.366.268.5Q29,23,31.993,28.183a3,3,0,0,1,.025,3.317,2.932,2.932,0,0,1-4.774.183,6.775,6.775,0,0,1-.423-.655q-3.993-6.908-7.981-13.818c-.086-.149-.174-.3-.311-.53v11.8c.525,0,1.042,0,1.559,0,.771,0,1.095.317,1.1,1.072q.007,2.235,0,4.471c0,.732-.329,1.053-1.072,1.053q-9.506,0-19.012.007A1.166,1.166,0,0,1,0,34.47V29.087a1.192,1.192,0,0,1,1.23-.614c.53.029,1.062.006,1.635.006,0-1.239,0-2.435,0-3.632a2.714,2.714,0,0,1,.03-.518.85.85,0,0,1,1.677.015,3.518,3.518,0,0,1,.027.605c0,1.156,0,2.312,0,3.5H16.757v-.461q0-12.261,0-24.522c0-1.192-.531-1.727-1.715-1.728H6.318c-1.185,0-1.716.535-1.717,1.726q0,6.25,0,12.5c0,.791-.3,1.212-.855,1.222s-.881-.422-.881-1.24q0-6.228,0-12.456A3.214,3.214,0,0,1,6.348,0q4.34,0,8.68,0a3.209,3.209,0,0,1,3.465,3.463c0,.361,0,.722,0,1,.693.364,1.338.7,1.98,1.042a.436.436,0,0,1,.171.131c.42.681,1.082.623,1.754.622,6.149-.01,12.3.019,18.446-.023,1.624-.011,3.08.5,3.61,2.535ZM1.773,33.312H19.414V30.224H1.773ZM22.246,10.42H41.231a3.562,3.562,0,0,0,.39-.009A1.211,1.211,0,0,0,41.631,8a3.715,3.715,0,0,0-.433-.011H22.246Zm-3.324,3.2-.05.154c.062.114.122.228.186.341l5.053,8.75q2.147,3.718,4.29,7.438a1.318,1.318,0,0,0,1.025.776,1.147,1.147,0,0,0,1.15-.545,1.284,1.284,0,0,0-.054-1.429q-3.843-6.644-7.684-13.289a1.309,1.309,0,0,0-.446-.445c-.918-.549-1.842-1.088-2.78-1.6a2.444,2.444,0,0,0-.691-.146m2.05-1.242.029.165c.135.081.27.163.406.242l15.577,9a9.247,9.247,0,0,0,.835.458,1.144,1.144,0,0,0,1.227-.146,1.163,1.163,0,0,0,.45-1.154,1.324,1.324,0,0,0-.748-.951q-6.666-3.842-13.332-7.684a1.127,1.127,0,0,0-.526-.145c-1.1-.013-2.2-.018-3.3,0a2.136,2.136,0,0,0-.621.216M18.516,6.448v5.516a2.877,2.877,0,0,0,0-5.516" transform="translate(0 0)" fill="#97a257"/>
    <path id="Path_171" data-name="Path 171" d="M77.365,52c1.071,0,2.141,0,3.212,0,.77,0,1.082.315,1.085,1.085q.006,1.866,0,3.733c0,.77-.315,1.083-1.085,1.084q-3.256,0-6.511,0c-.77,0-1.082-.315-1.085-1.084q-.006-1.866,0-3.733c0-.77.315-1.082,1.085-1.085,1.1,0,2.2,0,3.3,0m-2.619,4.135h5.159V53.753H74.746Z" transform="translate(-66.642 -47.48)" fill="#97a257"/>
    <path id="Path_172" data-name="Path 172" d="M77.37,139.793c-1.085,0-2.17,0-3.255,0-.633,0-1.036-.346-1.035-.863s.406-.869,1.036-.87q3.3-.008,6.6,0c.63,0,1.035.355,1.035.871s-.4.859-1.036.862c-1.114,0-2.228,0-3.342,0" transform="translate(-66.735 -126.068)" fill="#97a257"/>
    <path id="Path_173" data-name="Path 173" d="M34.8,224.1a.861.861,0,0,1-1.723-.012.861.861,0,1,1,1.723.012" transform="translate(-30.209 -203.845)" fill="#97a257"/>
  </g>
</svg>