<svg xmlns="http://www.w3.org/2000/svg" xmlns:xlink="http://www.w3.org/1999/xlink" width="45.865" height="45" viewBox="0 0 45.865 45">
  <defs>
    <clipPath id="clip-path">
      <rect id="Rectangle_24" data-name="Rectangle 24" width="45.865" height="45" transform="translate(0 0)" fill="#97a257"/>
    </clipPath>
  </defs>
  <g id="Group_234" data-name="Group 234" transform="translate(0.485 -0.339)">
    <g id="Group_3" data-name="Group 3" transform="translate(-0.485 0.339)" clip-path="url(#clip-path)">
      <path id="Path_59" data-name="Path 59" d="M136.36,0c.385.079.774.145,1.156.238a7.382,7.382,0,0,1,5.492,9.053,21.547,21.547,0,0,1-2.987,6.773c-1.247,1.952-2.642,3.808-3.975,5.7-.082.116-.188.215-.336.382-.753-1-1.509-1.954-2.207-2.947a34.483,34.483,0,0,1-4.576-8.35,8.775,8.775,0,0,1-.415-5.4A7.448,7.448,0,0,1,134.792.092,2.24,2.24,0,0,0,135.126,0Zm-.7,19.245c.185-.224.266-.307.33-.4.832-1.244,1.7-2.466,2.482-3.74a22.124,22.124,0,0,0,2.709-5.988,5.663,5.663,0,1,0-10.968-.4,17.408,17.408,0,0,0,2.132,5.231c1.04,1.766,2.172,3.477,3.315,5.295" transform="translate(-112.756 -0.374)" fill="#97a257"/>
      <path id="Path_60" data-name="Path 60" d="M0,368.25c.616,0,1.233.006,1.849.006H44.474c.22,0,.44,0,.66-.006V370.1H0Z" transform="translate(0.42 -325.34)" fill="#97a257"/>
      <path id="Path_61" data-name="Path 61" d="M0,157.569c1.219-.01,2.437-.029,3.656-.022a.481.481,0,0,0,.535-.383q1.867-5.264,3.755-10.522c.043-.12.067-.247.117-.434H6.65v-1.816h4.018c-.046.158-.082.305-.132.448q-2.511,7.042-5.017,14.085a.556.556,0,0,1-.629.444c-1.63-.029-3.26-.027-4.89-.037v-1.763" transform="translate(0.42 -127.794)" fill="#97a257"/>
      <path id="Path_62" data-name="Path 62" d="M303.811,159.329c-1.7.009-3.407.027-5.11.007-.136,0-.331-.248-.393-.419-1.081-2.992-2.145-5.99-3.213-8.987q-.9-2.527-1.8-5.053c-.053-.149-.1-.3-.161-.488h4.026v1.785h-1.418c.059.217.089.366.14.509q1.864,5.218,3.725,10.438a.532.532,0,0,0,.6.425c1.2-.01,2.408.012,3.611.021Z" transform="translate(-258.256 -127.791)" fill="#97a257"/>
      <path id="Path_63" data-name="Path 63" d="M108.973,157.464c-.459-2.146-.907-4.237-1.355-6.328-.329-1.534-.67-3.065-.982-4.6-.061-.3-.186-.383-.468-.374-.54.016-1.08,0-1.647,0v-1.8h3.519l3.2,14.941H86.424l3.2-14.934h3.511v1.8c-.551,0-1.117.008-1.683,0-.247-.005-.357.073-.412.332q-1.141,5.4-2.3,10.795c-.009.041-.009.085-.017.177Z" transform="translate(-75.846 -127.767)" fill="#97a257"/>
      <rect id="Rectangle_21" data-name="Rectangle 21" width="5.543" height="1.781" transform="translate(8.936 11.907)" fill="#97a257"/>
      <rect id="Rectangle_22" data-name="Rectangle 22" width="5.552" height="1.762" transform="translate(31.498 11.916)" fill="#97a257"/>
      <path id="Path_64" data-name="Path 64" d="M8.567,312.273h2.711c0,.558.006,1.106-.01,1.653,0,.054-.14.149-.216.15-.818.011-1.636.007-2.485.007Z" transform="translate(-7.14 -275.943)" fill="#97a257"/>
      <path id="Path_65" data-name="Path 65" d="M56.529,314.153v-1.8h2.719c0,.544.008,1.079-.011,1.613,0,.065-.15.179-.232.18-.817.013-1.634.008-2.476.008" transform="translate(-49.465 -276.012)" fill="#97a257"/>
      <path id="Path_66" data-name="Path 66" d="M104.482,314.189v-1.8H107.2c0,.542.006,1.09-.01,1.638,0,.055-.139.15-.215.151-.818.011-1.636.007-2.5.007" transform="translate(-91.781 -276.049)" fill="#97a257"/>
      <path id="Path_67" data-name="Path 67" d="M152.479,314.224v-1.793h2.728c0,.533.011,1.056-.012,1.576,0,.076-.162.205-.251.207-.8.016-1.609.009-2.465.009" transform="translate(-134.137 -276.082)" fill="#97a257"/>
      <path id="Path_68" data-name="Path 68" d="M200.481,314.189v-1.8H203.2c0,.542.006,1.09-.01,1.637,0,.055-.139.151-.214.152-.818.011-1.636.007-2.5.007" transform="translate(-176.497 -276.049)" fill="#97a257"/>
      <path id="Path_69" data-name="Path 69" d="M248.494,314.179v-1.8h2.719c0,.547.006,1.1-.01,1.643,0,.054-.141.147-.218.148-.818.011-1.635.007-2.491.007" transform="translate(-218.867 -276.038)" fill="#97a257"/>
      <path id="Path_70" data-name="Path 70" d="M299.253,312.348c0,.549.011,1.061-.011,1.571a.333.333,0,0,1-.238.221c-.816.017-1.633.01-2.475.01v-1.8Z" transform="translate(-261.256 -276.009)" fill="#97a257"/>
      <rect id="Rectangle_23" data-name="Rectangle 23" width="2.688" height="1.769" transform="translate(40.914 36.34)" fill="#97a257"/>
      <path id="Path_71" data-name="Path 71" d="M170.984,45.88a2.784,2.784,0,1,1,2.788-2.807,2.8,2.8,0,0,1-2.788,2.807m-.025-1.827A.955.955,0,1,0,170,43.1a.977.977,0,0,0,.957.957" transform="translate(-147.985 -35.948)" fill="#97a257"/>
    </g>
  </g>
</svg>