<svg id="Group_110" data-name="Group 110" xmlns="http://www.w3.org/2000/svg" xmlns:xlink="http://www.w3.org/1999/xlink" width="37.787" height="37.79" viewBox="0 0 37.787 37.79">
  <defs>
    <clipPath id="clip-path">
      <rect id="Rectangle_75" data-name="Rectangle 75" width="37.787" height="37.79" fill="#97a257"/>
    </clipPath>
  </defs>
  <g id="Group_109" data-name="Group 109" clip-path="url(#clip-path)">
    <path id="Path_163" data-name="Path 163" d="M10.037,0a.985.985,0,0,1,.524,1c-.027.848-.005,1.7-.009,2.546,0,.606-.274.875-.882.878-.674,0-1.349,0-2.046,0V9.75a2.439,2.439,0,0,1,2.808,1.458H16.8a2.322,2.322,0,0,1,2.476-1.469c.331.018.664,0,1,0a.752.752,0,0,1,.839.847c0,1.587,0,3.173,0,4.76v.3A11.166,11.166,0,0,1,32.912,27.5c.1.036.187.073.277.1a3.7,3.7,0,0,1,2.679,3.607c0,.485.055.557.546.613a2.788,2.788,0,0,0,.477,0,.756.756,0,0,1,.892.669c.035.428-.276.747-.776.806a3.055,3.055,0,0,1-2.58-.923c-.646-.623-.906-.626-1.533-.014a2.972,2.972,0,0,1-4.4-.015c-.592-.585-.891-.586-1.479-.007a2.972,2.972,0,0,1-4.428,0c-.586-.58-.888-.579-1.48,0a2.975,2.975,0,0,1-4.429-.009c-.572-.567-.879-.57-1.456-.015a3.242,3.242,0,0,1-4.717-.035c-.512-.5-.864-.5-1.378.007a3.072,3.072,0,0,1-4.585.008.891.891,0,0,0-1.482.006,3.378,3.378,0,0,1-2.043,1A.87.87,0,0,1,0,32.769V19.041c.028-.038.057-.076.084-.116a.748.748,0,0,1,.843-.374.776.776,0,0,1,.549.855q0,5.9,0,11.8V31.7c.252-.212.437-.347.6-.506a2.323,2.323,0,0,1,3.442-.01c.168.165.363.3.587.49V4.453H1.476v2.38q0,2.858,0,5.717a.749.749,0,0,1-.547.781.748.748,0,0,1-.843-.374c-.026-.04-.056-.077-.084-.115V0ZM7.612,31.668c.248-.232.426-.394.6-.56a2.212,2.212,0,0,1,2.131-.615,2.658,2.658,0,0,1,1.261.792,1.727,1.727,0,0,0,2.429.108c.124-.1.231-.22.349-.328a2.2,2.2,0,0,1,2.075-.575,2.42,2.42,0,0,1,1.234.764,1.543,1.543,0,0,0,1.133.568,3.726,3.726,0,0,1,3.726-5.788c0-.882.065-1.769-.019-2.643a2.062,2.062,0,0,0-1.424-1.716c0,.2,0,.351,0,.5a.762.762,0,0,1-.869.854c-.344,0-.689-.013-1.032,0a2.306,2.306,0,0,1-2.414-1.478c-2.061,0-4.125,0-6.189.01-.092,0-.216.127-.27.225a2.228,2.228,0,0,1-2.066,1.241c-.216,0-.432,0-.655,0Zm20.877-1.2c0-.7,0-1.42,0-2.145,0-.535.293-.871.74-.869s.732.338.734.876c0,.984.019,1.968-.009,2.951a.441.441,0,0,0,.419.519,1.587,1.587,0,0,0,1.549-.567,2.261,2.261,0,0,1,2.191-.763.453.453,0,0,0,.134-.016,2.133,2.133,0,0,0-1.935-1.523c-.643-.043-.869-.283-.871-.93,0-.43.011-.861,0-1.291A9.46,9.46,0,0,0,26.1,18.128a9.319,9.319,0,0,0-4.971-.99v2.994c.066.026.122.052.181.07A3.463,3.463,0,0,1,24,23.274a32.7,32.7,0,0,1,.045,3.942.7.7,0,0,1-.958.589c-.128-.041-.244-.116-.368-.169a2.205,2.205,0,0,0-2.7.8,2.133,2.133,0,0,0,.191,2.673,2.323,2.323,0,0,1,2.067-.635,2.356,2.356,0,0,1,1.312.768,1.578,1.578,0,0,0,1.514.569c.3-.055.455-.165.452-.529-.02-2.361-.01-4.722-.01-7.083,0-.16-.008-.321.006-.479a.734.734,0,0,1,1.465,0c.011.11.005.221.005.332q0,3.044,0,6.088v.335Zm-17.917-10.4H11q3.117,0,6.234,0c.618,0,.836.19.929.8a.726.726,0,0,0,.637.664c.264.026.534.005.813.005V11.218c-.216,0-.41,0-.6,0a.755.755,0,0,0-.849.836c0,.369,0,.738,0,1.107,0,1.537,0,3.074,0,4.611a.749.749,0,0,1-.859.814.762.762,0,0,1-.614-.839q0-2.324,0-4.648v-.387H10.572ZM7.617,21.551h.509c.706,0,.952-.247.952-.957q0-1.678,0-3.357,0-2.582,0-5.165a.749.749,0,0,0-.795-.853c-.217-.006-.435,0-.665,0ZM1.492,2.926H9.047V1.5H1.492Z" fill="#97a257"/>
    <path id="Path_164" data-name="Path 164" d="M0,355.749a1.169,1.169,0,0,1,.887-.55A2.172,2.172,0,0,0,2,354.626a2.426,2.426,0,0,1,3.595,0,1.565,1.565,0,0,0,2.484,0,2.237,2.237,0,0,1,3.465-.013,1.77,1.77,0,0,0,2.729-.061,2.159,2.159,0,0,1,2.318-.631,2.785,2.785,0,0,1,1.01.641,1.58,1.58,0,0,0,2.578-.007,2.222,2.222,0,0,1,3.334,0,1.56,1.56,0,0,0,2.57,0,2.221,2.221,0,0,1,3.334,0,1.56,1.56,0,0,0,2.57,0,2.211,2.211,0,0,1,3.331,0,1.8,1.8,0,0,0,1.673.641.707.707,0,0,1,.788.617.73.73,0,0,1-.579.819,2.769,2.769,0,0,1-2.184-.415,3.767,3.767,0,0,1-.548-.434c-.718-.681-.915-.685-1.615-.011a3.168,3.168,0,0,1-1.524.854,2.908,2.908,0,0,1-2.576-.674c-.123-.1-.235-.217-.349-.329a.781.781,0,0,0-1.3,0,3.331,3.331,0,0,1-1.684,1.005,2.961,2.961,0,0,1-2.819-.9c-.619-.6-.892-.606-1.511,0a2.962,2.962,0,0,1-4.4-.006c-.6-.6-.886-.6-1.485-.017a3.223,3.223,0,0,1-4.661,0c-.581-.571-.883-.571-1.459,0a3.053,3.053,0,0,1-4.5.016c-.606-.593-.961-.594-1.563,0a3.465,3.465,0,0,1-1.871.96A.963.963,0,0,1,0,356.192Z" transform="translate(0 -318.921)" fill="#97a257"/>
    <path id="Path_165" data-name="Path 165" d="M0,154.713c.041-.059.081-.118.123-.176a.7.7,0,0,1,.83-.3.73.73,0,0,1,0,1.4.7.7,0,0,1-.83-.3c-.042-.058-.082-.117-.123-.176v-.443" transform="translate(0 -138.992)" fill="#97a257"/>
    <path id="Path_166" data-name="Path 166" d="M321.169,173.642c.467,0,.933-.008,1.4,0a2.212,2.212,0,0,1,.92,4.205,2.172,2.172,0,0,1-2.661-.6c-.626-.788-1.217-1.6-1.819-2.41a.7.7,0,0,1-.079-.8.728.728,0,0,1,.692-.4h1.547m-.111,1.48c.344.453.62.844.927,1.209a.676.676,0,0,0,.865.183.721.721,0,0,0,.408-.79.693.693,0,0,0-.658-.6c-.485-.027-.973-.007-1.541-.007" transform="translate(-287.404 -156.519)" fill="#97a257"/>
    <path id="Path_167" data-name="Path 167" d="M364.555,264.981a.735.735,0,1,1,.731-.721.743.743,0,0,1-.731.721" transform="translate(-327.944 -237.529)" fill="#97a257"/>
    <path id="Path_168" data-name="Path 168" d="M154.941,279.951a.735.735,0,1,1,.751-.7.744.744,0,0,1-.751.7" transform="translate(-139.015 -251.023)" fill="#97a257"/>
    <path id="Path_169" data-name="Path 169" d="M290.432,249.287a.735.735,0,1,1-.7-.75.744.744,0,0,1,.7.75" transform="translate(-260.47 -224.031)" fill="#97a257"/>
  </g>
</svg>