<svg id="Group_241" data-name="Group 241" xmlns="http://www.w3.org/2000/svg" xmlns:xlink="http://www.w3.org/1999/xlink" width="37.264" height="37.272" viewBox="0 0 37.264 37.272">
  <defs>
    <clipPath id="clip-path">
      <rect id="Rectangle_31" data-name="Rectangle 31" width="37.264" height="37.272" fill="#97a257"/>
    </clipPath>
  </defs>
  <g id="Group_10" data-name="Group 10" clip-path="url(#clip-path)">
    <path id="Path_83" data-name="Path 83" d="M13.8,31.64H9.65v.446q0,2.194,0,4.387c0,.628-.166.8-.781.8q-4.034,0-8.068,0c-.621,0-.8-.175-.8-.786Q0,20.719,0,4.952A4.825,4.825,0,0,1,9.6,4.208a14.072,14.072,0,0,1,.079,1.423h4.132A5,5,0,0,1,15.7,1.105a4.814,4.814,0,0,1,5.6-.2,4.873,4.873,0,0,1,1.745,2.066,6.05,6.05,0,0,1,.424,2.656h4.159c0-.386-.018-.762,0-1.135a4.821,4.821,0,0,1,9.63.236c0,.13,0,.261,0,.392q0,15.61,0,31.221c0,.8-.131.928-.934.928H28.458c-.7,0-.842-.148-.843-.853q0-2.154,0-4.309v-.46H23.462v.431q0,2.174,0,4.348c0,.676-.162.842-.823.842q-4.014,0-8.029,0c-.639,0-.806-.17-.807-.818q0-2.174,0-4.348V31.64m8.564,4.514v-.479q0-3.936,0-7.871,0-11.337,0-22.674a3.737,3.737,0,0,0-1.151-2.893,3.542,3.542,0,0,0-4.021-.747A3.606,3.606,0,0,0,14.9,5.082q-.007,15.331,0,30.662c0,.137.014.275.021.411Zm-13.832,0c.007-.146.019-.273.019-.4q0-15.354-.005-30.708A4.337,4.337,0,0,0,8.4,3.888a3.724,3.724,0,0,0-7.3,1.1Q1.093,20.4,1.1,35.813c0,.112.017.225.026.341Zm20.178,0h7.457V35.63q0-10.066,0-20.133c0-3.5.008-7,0-10.5a3.729,3.729,0,1,0-7.453.112q0,15.3,0,30.591Zm-14.933-19.6H9.68v4.185h4.1Zm13.8.005H23.49v4.172h4.092ZM9.651,10.938h4.121V6.754c-1.319,0-2.608,0-3.9.01A.322.322,0,0,0,9.661,7c-.013,1.3-.01,2.606-.01,3.943m13.835,0h4.071c.021-.04.044-.062.044-.085.005-1.292.006-2.584.013-3.877,0-.242-.156-.228-.317-.228H23.487ZM23.5,26.324v4.194c1.322,0,2.612,0,3.9-.012.073,0,.206-.178.207-.275.013-1.253.008-2.506,0-3.76a.543.543,0,0,0-.046-.147ZM9.7,26.333c-.021.044-.04.067-.04.091,0,1.279,0,2.558-.014,3.838,0,.256.144.259.328.259.953,0,1.906,0,2.859,0h.939V26.333Zm17.88-4.466H23.5V25.2h4.086ZM9.673,25.185H13.78V21.863H9.673Zm4.1-13.105H9.679v3.327h4.093Zm9.71,3.322h4.1V12.084h-4.1Z" transform="translate(0 0)" fill="#97a257"/>
    <path id="Path_84" data-name="Path 84" d="M162.9,258.122a1.763,1.763,0,0,1-1.749-1.783,1.771,1.771,0,1,1,3.542.043,1.761,1.761,0,0,1-1.793,1.74m.036-2.437a.69.69,0,0,0-.689.66.674.674,0,0,0,1.347.03.687.687,0,0,0-.658-.689" transform="translate(-144.293 -227.951)" fill="#97a257"/>
    <path id="Path_85" data-name="Path 85" d="M162.954,67.833a1.766,1.766,0,0,1,1.743,1.751,1.771,1.771,0,1,1-3.543-.017,1.764,1.764,0,0,1,1.8-1.734m.644,1.773a.674.674,0,0,0-1.347-.019.674.674,0,1,0,1.347.019" transform="translate(-144.293 -60.736)" fill="#97a257"/>
    <path id="Path_86" data-name="Path 86" d="M162.943,164.711a1.771,1.771,0,1,1,1.76-1.782,1.78,1.78,0,0,1-1.76,1.782m.66-1.779a.673.673,0,1,0-.664.682.682.682,0,0,0,.664-.682" transform="translate(-144.299 -144.307)" fill="#97a257"/>
    <path id="Path_87" data-name="Path 87" d="M32.76,162.984a1.765,1.765,0,0,1-1.809,1.723,1.772,1.772,0,1,1,.1-3.542,1.767,1.767,0,0,1,1.713,1.819m-1.1-.066a.669.669,0,0,0-.684-.655.673.673,0,1,0,.036,1.346.669.669,0,0,0,.647-.691" transform="translate(-26.167 -144.302)" fill="#97a257"/>
    <path id="Path_88" data-name="Path 88" d="M31.006,67.836a1.745,1.745,0,0,1,1.753,1.732,1.773,1.773,0,0,1-1.773,1.8,1.792,1.792,0,0,1-1.763-1.783,1.772,1.772,0,0,1,1.783-1.753m-.027,1.1a.677.677,0,0,0-.66.682.694.694,0,0,0,.691.659.672.672,0,0,0,.65-.691.651.651,0,0,0-.681-.65" transform="translate(-26.165 -60.739)" fill="#97a257"/>
    <path id="Path_89" data-name="Path 89" d="M30.957,258.12a1.769,1.769,0,0,1-1.735-1.8,1.8,1.8,0,0,1,1.811-1.735,1.769,1.769,0,0,1,1.723,1.81,1.741,1.741,0,0,1-1.8,1.723m.043-1.1a.651.651,0,0,0,.659-.673.673.673,0,0,0-.674-.668.7.7,0,0,0-.668.683.67.67,0,0,0,.682.658" transform="translate(-26.164 -227.949)" fill="#97a257"/>
    <path id="Path_90" data-name="Path 90" d="M293.157,162.931a1.766,1.766,0,0,1,1.773-1.761,1.771,1.771,0,1,1-.022,3.542,1.762,1.762,0,0,1-1.751-1.781m1.746.683a.674.674,0,1,0,.031-1.347.674.674,0,0,0-.031,1.347" transform="translate(-262.485 -144.307)" fill="#97a257"/>
    <path id="Path_91" data-name="Path 91" d="M294.885,258.122a1.74,1.74,0,0,1-1.729-1.793,1.77,1.77,0,0,1,1.795-1.74,1.793,1.793,0,0,1,1.74,1.8,1.768,1.768,0,0,1-1.805,1.729m.032-2.437a.672.672,0,0,0-.665.675.65.65,0,0,0,.666.665.674.674,0,0,0,.675-.666.694.694,0,0,0-.676-.674" transform="translate(-262.483 -227.951)" fill="#97a257"/>
    <path id="Path_92" data-name="Path 92" d="M294.943,67.827a1.773,1.773,0,0,1,1.747,1.75,1.8,1.8,0,0,1-1.8,1.786,1.77,1.77,0,0,1-1.735-1.8,1.745,1.745,0,0,1,1.789-1.736m.648,1.754a.673.673,0,0,0-.684-.657.654.654,0,0,0-.657.676.672.672,0,0,0,.675.666.7.7,0,0,0,.667-.684" transform="translate(-262.482 -60.731)" fill="#97a257"/>
  </g>
</svg>