<svg id="Group_106" data-name="Group 106" xmlns="http://www.w3.org/2000/svg" xmlns:xlink="http://www.w3.org/1999/xlink" width="38.31" height="38.312" viewBox="0 0 38.31 38.312">
  <defs>
    <clipPath id="clip-path">
      <rect id="Rectangle_73" data-name="Rectangle 73" width="38.31" height="38.312" fill="#97a257"/>
    </clipPath>
  </defs>
  <g id="Group_105" data-name="Group 105" clip-path="url(#clip-path)">
    <path id="Path_156" data-name="Path 156" d="M17.433,38.312a8.072,8.072,0,0,1-1.206-.474A3.15,3.15,0,0,1,15.083,33.6c.059-.107.121-.212.2-.349a13.574,13.574,0,0,1-1.379-.136,4.467,4.467,0,0,1-3.576-3.838q-1.141-7.406-2.3-14.809-.681-4.376-1.36-8.752A1.283,1.283,0,0,0,5.221,4.477c-1.447,0-2.893,0-4.34,0a1.639,1.639,0,0,1-.407-.037.609.609,0,0,1-.468-.673.594.594,0,0,1,.562-.555,4.3,4.3,0,0,1,.448-.01c1.409,0,2.819,0,4.228,0A2.55,2.55,0,0,1,7.936,5.561c.282,1.885.586,3.767.891,5.648.017.1.131.273.2.274,1.019.018,2.039.012,3.1.012v-.479q0-4.434,0-8.867A1.946,1.946,0,0,1,14.281,0q5.462,0,10.924.01a2.951,2.951,0,0,1,.839.161q4.961,1.528,9.918,3.07a1.3,1.3,0,0,1,.957,1.816q-.929,3.016-1.86,6.031c-.036.116-.069.234-.121.411.618,0,1.2.027,1.777-.006a1.427,1.427,0,0,1,1.6,1V26.04a7.957,7.957,0,0,1-.342,1.057,3.831,3.831,0,0,1-3.755,2.28q-11.034-.007-22.068,0c-.153,0-.306.014-.465.022a1.426,1.426,0,0,0,.019.161,3.2,3.2,0,0,0,3.272,2.374q11.2,0,22.405-.005a1.012,1.012,0,0,1,.933.4v.449a.913.913,0,0,1-.912.441c-.51-.022-1.021-.005-1.531-.005H34.49c.085.145.135.228.183.311a3.147,3.147,0,0,1-.985,4.244,7.906,7.906,0,0,1-1.289.547h-.973c-.138-.047-.276-.1-.416-.139a3.157,3.157,0,0,1-2.189-3.745,8.672,8.672,0,0,1,.46-1.188H20.455c.075.123.127.2.176.288a3.179,3.179,0,0,1-1.664,4.588c-.208.076-.424.131-.636.2ZM9.072,12.793c.028.213.046.386.073.557q1.117,7.183,2.228,14.366c.046.3.154.383.449.382q11.243-.011,22.485-.008a2.552,2.552,0,0,0,2.728-2.743q0-6.08,0-12.159v-.4ZM27.22,1.87l-2.976,9.6c.113.012.184.026.256.026,2.94,0,5.88,0,8.821.007.247,0,.307-.114.369-.314q.958-3.121,1.93-6.237c.043-.138.078-.279.123-.439L27.22,1.87M15.989,1.287V11.5c1.379,0,2.724.006,4.069-.013.09,0,.22-.173.258-.289.28-.864.541-1.735.808-2.6.156-.508.314-1.015.484-1.564-1.211,0-2.369,0-3.527,0-.62,0-.842-.216-.846-.825q-.007-1.085,0-2.17c0-.625.209-.831.831-.832,1.4,0,2.794-.021,4.19.012.429.01.622-.11.711-.527.1-.464.264-.913.408-1.4ZM21.582,11.5c.334,0,.618-.02.9.005.31.028.453-.075.547-.388.694-2.3,1.41-4.589,2.12-6.882q.418-1.35.836-2.693c-.811-.413-1.242-.38-1.526.566-.885,2.955-1.813,5.9-2.724,8.844-.05.162-.091.326-.153.548m-6.933-.021V1.3c-1.067-.093-1.247.069-1.247,1.1v9.084ZM31.943,33.212a1.907,1.907,0,0,0-1.935,1.907,1.929,1.929,0,0,0,1.9,1.917,1.909,1.909,0,0,0,1.926-1.879,1.889,1.889,0,0,0-1.888-1.945m-14.069,0a1.912,1.912,0,1,0,1.916,1.923,1.914,1.914,0,0,0-1.916-1.923M22.38,4.5H18.55V5.752c1.107,0,2.177,0,3.247-.007a.321.321,0,0,0,.248-.152c.125-.347.221-.705.336-1.09" transform="translate(0 0)" fill="#97a257"/>
    <path id="Path_157" data-name="Path 157" d="M132.935,143.148c0-.477,0-.948,0-1.419,0-.162-.006-.325.007-.486a.613.613,0,0,1,.616-.619.6.6,0,0,1,.641.594c.028.435.012.872.015,1.309,0,.2,0,.4,0,.645h.428c1.085,0,2.17,0,3.255,0,.5,0,.761.216.77.617s-.269.655-.775.656c-1.208,0-2.415,0-3.65,0v5.1h.4c1.085,0,2.17,0,3.255,0a.683.683,0,0,1,.74.448c.15.438-.165.824-.679.827-1.1.007-2.195,0-3.292,0h-.456c0,.531,0,1.025,0,1.519a3.008,3.008,0,0,1-.028.521.6.6,0,0,1-.64.508.582.582,0,0,1-.592-.558c-.027-.51-.014-1.022-.018-1.533,0-.135,0-.269,0-.431h-5.117c0,.488,0,.97,0,1.451,0,.15.005.3,0,.449a.609.609,0,0,1-.613.621.617.617,0,0,1-.652-.626c-.02-.461-.006-.923-.007-1.384,0-.161,0-.322,0-.511h-5.1c0,.612,0,1.218,0,1.825a.622.622,0,0,1-.511.683.615.615,0,0,1-.759-.649c-.011-.609,0-1.219,0-1.886h-.421c-.885,0-1.771,0-2.656,0-.484,0-.751-.237-.748-.638s.28-.632.761-.635c.873,0,1.746,0,2.619,0h.423v-5.1h-.384c-1.322,0-2.644,0-3.966,0-.5,0-.782-.3-.722-.738.048-.346.3-.533.734-.534,1.3,0,2.594,0,3.891,0h.469c0-.362,0-.705,0-1.048,0-.274-.006-.549,0-.823a.621.621,0,0,1,.635-.677.629.629,0,0,1,.635.683c.01.608,0,1.216,0,1.844h5.1c0-.287,0-.579,0-.871,0-.349-.014-.7.008-1.047a.619.619,0,0,1,.669-.607.6.6,0,0,1,.593.638c.012.62,0,1.241,0,1.885Zm-.029,1.325h-5.059v5.061h5.059Zm-11.44,5.049h5.051V144.46h-5.051Z" transform="translate(-103.562 -126.565)" fill="#97a257"/>
    <path id="Path_158" data-name="Path 158" d="M270.665,42.573l1.172.364c1.189.368,2.379.732,3.568,1.1.594.185.737.453.558,1.037q-.328,1.071-.665,2.139a.664.664,0,0,1-.945.507q-2.338-.718-4.67-1.454a.648.648,0,0,1-.5-.916c.228-.763.474-1.521.71-2.282a.663.663,0,0,1,.769-.5m.282,1.42-.375,1.217,3.652,1.134.376-1.219-3.653-1.132" transform="translate(-242.231 -38.316)" fill="#97a257"/>
  </g>
</svg>