<svg id="Group_237" data-name="Group 237" xmlns="http://www.w3.org/2000/svg" xmlns:xlink="http://www.w3.org/1999/xlink" width="44.952" height="45" viewBox="0 0 44.952 45">
  <defs>
    <clipPath id="clip-path">
      <rect id="Rectangle_35" data-name="Rectangle 35" width="44.952" height="45" fill="#97a257"/>
    </clipPath>
  </defs>
  <g id="Group_14" data-name="Group 14" clip-path="url(#clip-path)">
    <path id="Path_96" data-name="Path 96" d="M2.178,17.473A2.231,2.231,0,0,1,0,15.013C0,14.152,0,13.291,0,12.43A2.162,2.162,0,0,1,2.239,10.2q5.528-.009,11.056,0h.583A8.7,8.7,0,0,1,16.8,2.116,8.287,8.287,0,0,1,22.71,0,8.407,8.407,0,0,1,29.2,3.195a8.648,8.648,0,0,1,1.855,7H42.548a2.191,2.191,0,0,1,2.4,2.381q0,1.2,0,2.4a2.245,2.245,0,0,1-2.175,2.5v.528q0,10.082,0,20.163a2.213,2.213,0,0,1-2.489,2.478H38.427c0,.6,0,1.167,0,1.735,0,.6.008,1.208,0,1.812a.72.72,0,0,1-.782.8q-2.832.013-5.664,0a.727.727,0,0,1-.8-.827c-.008-1.012,0-2.024,0-3.036V40.67H15.9a5.1,5.1,0,0,1-2.116,3.4,4.989,4.989,0,0,1-3.2.915,5.129,5.129,0,0,1-4.733-4.339c-.434,0-.883,0-1.332,0a2.182,2.182,0,0,1-2.337-2.356q0-10.127,0-20.254Zm4.35,17.353v-.569q0-7.159,0-14.317c0-.832.209-1.041,1.043-1.041H21.435c.832,0,1.042.21,1.042,1.042q0,7.181,0,14.363v.523H41.3V17.481H3.65V34.826ZM8,34.817H20.993V20.371H8ZM22.457,16a7.248,7.248,0,1,0-7.229-7.29A7.252,7.252,0,0,0,22.457,16M15.9,39.2H40.282c.136,0,.308.047.4-.018.23-.162.581-.361.6-.573.073-.756.029-1.523.029-2.274H14.462A5.341,5.341,0,0,1,15.9,39.2M14.288,11.671a1.941,1.941,0,0,0-.2-.021q-5.91,0-11.82,0c-.553,0-.813.281-.817.854-.006.845,0,1.691,0,2.536,0,.713.24.956.946.956q7.4,0,14.809,0c.109,0,.217-.021.4-.041a8.927,8.927,0,0,1-3.319-4.285M27.323,16c5.217,0,10.3,0,15.39,0A.717.717,0,0,0,43.5,15.2c.01-.906.009-1.812,0-2.717a.736.736,0,0,0-.84-.832c-3.895,0-7.789,0-11.684-.01-.276,0-.352.128-.437.339a8.656,8.656,0,0,1-2.889,3.754c-.08.06-.155.125-.327.264M14.5,39.965a3.624,3.624,0,1,0-3.68,3.582,3.63,3.63,0,0,0,3.68-3.582m22.453.71h-4.3v2.854h4.3ZM3.632,36.317c0,.754-.012,1.474.005,2.194a.63.63,0,0,0,.574.658c.548.047,1.1.013,1.656.013a5.353,5.353,0,0,1,1.423-2.865Z" transform="translate(0 0)" fill="#97a257"/>
    <path id="Path_97" data-name="Path 97" d="M218.421,168.415c-.651,0-1.3,0-1.946,0-.628,0-.892-.258-.9-.869q-.009-1.313,0-2.627c0-.589.269-.847.866-.852.661-.006,1.322,0,2.007,0v-1.45c-.617,0-1.244,0-1.87,0-.776,0-1-.224-1-.989q0-1.2,0-2.4c0-.717.238-.957.941-.96.632,0,1.264,0,1.958,0,0-.457,0-.888,0-1.319.008-.59.269-.853.864-.854q3.487-.006,6.975,0c.591,0,.857.268.858.861q0,6.386,0,12.772c0,.593-.267.862-.856.863q-3.487.007-6.975,0c-.6,0-.856-.265-.866-.853-.007-.407-.008-.815-.013-1.222a.519.519,0,0,0-.045-.1m1.539.688H225.7V157.56H219.96Zm-1.5-9.364h-1.4v1.393h1.4Zm-1.408,7.2h1.4v-1.391h-1.4Z" transform="translate(-189.476 -137.192)" fill="#97a257"/>
    <path id="Path_98" data-name="Path 98" d="M82.887,185.847c-1.374,0-2.749,0-4.123,0-.651,0-.9-.255-.906-.9q-.005-1.993,0-3.987c0-.652.254-.905.9-.906q4.168,0,8.337,0c.651,0,.905.254.907.9q.006,1.994,0,3.987c0,.651-.256.905-.9.907-1.4,0-2.809,0-4.214,0m3.65-4.317H79.344v2.843h7.193Z" transform="translate(-68.429 -158.248)" fill="#97a257"/>
    <path id="Path_99" data-name="Path 99" d="M149.529,27.968c1.179,0,2.294,0,3.41,0a.84.84,0,0,1,.85.392.828.828,0,0,1-.154.922q-2.062,3.086-4.115,6.177c-.227.342-.5.586-.935.443s-.515-.494-.509-.906c.012-.873,0-1.746,0-2.676h-.828c-.906,0-1.812.01-2.717,0a.715.715,0,0,1-.653-1.154c1.426-2.168,2.87-4.323,4.313-6.479a.677.677,0,0,1,.829-.3.7.7,0,0,1,.5.725c0,.934,0,1.867,0,2.858m-3.718,2.9c1,0,1.9,0,2.8,0,.673,0,.916.251.92.933,0,.291,0,.582,0,.873l.09.015,2.178-3.271c-1.009,0-1.925,0-2.84,0-.617,0-.87-.263-.878-.885,0-.306,0-.612,0-.919l-.09-.016-2.179,3.271" transform="translate(-126.328 -21.394)" fill="#97a257"/>
    <path id="Path_100" data-name="Path 100" d="M76.248,314.019a2.173,2.173,0,1,1-2.108-2.212,2.183,2.183,0,0,1,2.108,2.212m-2.175-.762a.722.722,0,1,0,.724.709.73.73,0,0,0-.724-.709" transform="translate(-63.198 -274.058)" fill="#97a257"/>
    <rect id="Rectangle_33" data-name="Rectangle 33" width="2.84" height="1.399" transform="translate(31.928 22.545)" fill="#97a257"/>
    <rect id="Rectangle_34" data-name="Rectangle 34" width="2.833" height="1.408" transform="translate(31.931 28.332)" fill="#97a257"/>
  </g>
</svg>