<svg id="Group_238" data-name="Group 238" xmlns="http://www.w3.org/2000/svg" xmlns:xlink="http://www.w3.org/1999/xlink" width="45.001" height="45" viewBox="0 0 45.001 45">
  <defs>
    <clipPath id="clip-path">
      <rect id="Rectangle_30" data-name="Rectangle 30" width="45.001" height="45" fill="#97a257"/>
    </clipPath>
  </defs>
  <g id="Group_8" data-name="Group 8" clip-path="url(#clip-path)">
    <path id="Path_79" data-name="Path 79" d="M21.165,45a15.763,15.763,0,0,1-1.715-.739,3.4,3.4,0,0,1-1.4-1.651.638.638,0,0,0-.692-.434q-8.4.019-16.8.009H0V40.795H17.121c-.233-.475-.415-.9-.654-1.295-.061-.1-.305-.124-.466-.124q-6.311-.01-12.622-.005H2.817v-1.4h4.17V0H37.955V37.95h4.2v1.414H35.172v1.414H45v1.407c-3.265,0-6.531,0-9.8-.006a.711.711,0,0,0-.655.322c-.609.842-1.241,1.667-1.863,2.5ZM36.539,1.4H8.445V37.939H9.829V23.925h1.412V37.942H15.7c-.213-.429-.411-.816-.6-1.208a2.663,2.663,0,0,1,4.672-2.557c.174.278.343.558.564.919v-7h-4.86V16.83h1.378c0-.986-.008-1.924,0-2.862a5.64,5.64,0,0,1,5.07-5.537A5.531,5.531,0,0,1,27.916,12.7a22.577,22.577,0,0,1,.2,3.54c.009.2,0,.4,0,.626h1.38V28.13H25.322v2.095c.473,0,.924-.005,1.374,0a1.68,1.68,0,0,1,1.563.735c.374.724.925.707,1.554.672a3.928,3.928,0,0,1,.527.005,1.928,1.928,0,0,1,1.633.964.708.708,0,0,0,.826.438,1.428,1.428,0,0,1,.263,0,2.1,2.1,0,0,1,2.083,2.072c.017.82,0,1.642.006,2.462,0,.125.016.251.024.366h1.363ZM28.807,33.038v2.084h-1.4c0-.918,0-1.81,0-2.7,0-.4-.176-.719-.577-.763a14.536,14.536,0,0,0-1.548-.013v2.069H23.892v-.506q0-3.958,0-7.916a4.172,4.172,0,0,0-.008-.439,1.051,1.051,0,0,0-2.095.006c-.015.145-.007.293-.007.44q0,6.069,0,12.137v.528a7.8,7.8,0,0,0-.894.007.659.659,0,0,1-.718-.414c-.528-.912-1.078-1.812-1.638-2.706a1.249,1.249,0,0,0-2.2,1.191c1.011,2.048,2.023,4.1,3.071,6.125a2.528,2.528,0,0,0,2.362,1.421q4.947.022,9.895,0a.734.734,0,0,0,.5-.246c.487-.6.944-1.233,1.4-1.859a.739.739,0,0,0,.169-.386q.015-2.968,0-5.937a.662.662,0,0,0-.649-.7,7.491,7.491,0,0,0-.775,0V36.53H30.928c0-.916.006-1.808,0-2.7a.709.709,0,0,0-.787-.792c-.422-.009-.845,0-1.331,0M16.887,18.282v8.4h3.487c0-.28-.008-.54,0-.8a9.128,9.128,0,0,1,.08-1.486,2.419,2.419,0,0,1,2.63-1.9,2.462,2.462,0,0,1,2.207,2.35c.021.61,0,1.22,0,1.829h2.8V18.282Zm1.452-1.461H26.7c0-1.042.039-2.054-.008-3.063a4.214,4.214,0,0,0-3.92-3.933,4.129,4.129,0,0,0-4.4,3.46,28.3,28.3,0,0,0-.026,3.536" fill="#97a257"/>
    <rect id="Rectangle_28" data-name="Rectangle 28" width="1.377" height="1.407" transform="translate(43.624 37.963)" fill="#97a257"/>
    <rect id="Rectangle_29" data-name="Rectangle 29" width="1.343" height="1.366" transform="translate(0.003 37.995)" fill="#97a257"/>
    <path id="Path_80" data-name="Path 80" d="M137.089,31.9V60.693h-1.364V33.31H113.194V43.1H111.81V31.9Z" transform="translate(-101.956 -29.089)" fill="#97a257"/>
    <path id="Path_81" data-name="Path 81" d="M115.541,178.787c0,.483.01.967,0,1.45a2.107,2.107,0,0,1-4.213.015q-.028-1.449,0-2.9a2.107,2.107,0,0,1,4.213-.015c.014.483,0,.966,0,1.45m-2.812.012c0,.454-.01.909,0,1.363a.7.7,0,1,0,1.4-.008q.017-1.363,0-2.726a.7.7,0,1,0-1.4.009c-.012.454,0,.909,0,1.363" transform="translate(-101.502 -159.83)" fill="#97a257"/>
    <path id="Path_82" data-name="Path 82" d="M217.425,224.928l-.9.975a4.685,4.685,0,0,0-6.261,0l-.908-.97a5.85,5.85,0,0,1,8.068-.005" transform="translate(-190.906 -203.636)" fill="#97a257"/>
  </g>
</svg>