<svg xmlns="http://www.w3.org/2000/svg" xmlns:xlink="http://www.w3.org/1999/xlink" width="98.736" height="83.078" viewBox="0 0 98.736 83.078">
  <defs>
    <clipPath id="clip-path">
      <rect id="Rectangle_2" data-name="Rectangle 2" width="98.736" height="83.078" fill="#fff"/>
    </clipPath>
  </defs>
  <g id="Group_2" data-name="Group 2" transform="translate(0 0)">
    <g id="Group_1" data-name="Group 1" transform="translate(0 0)" clip-path="url(#clip-path)">
      <path id="Path_1" data-name="Path 1" d="M9.129,59.335c0,.267-.274.542-.824.829a3.428,3.428,0,0,1-1.591.433A1.51,1.51,0,0,1,5.041,58.94,2.9,2.9,0,0,1,2.3,60.667,2.35,2.35,0,0,1,.65,60.072,1.982,1.982,0,0,1,0,58.543q0-1.915,2.289-3.036a12.606,12.606,0,0,1,2.731-.746v-.586a10.955,10.955,0,0,0-.21-2.707,1.594,1.594,0,0,0-1.681-1.192,2.1,2.1,0,0,0-1.366.444,1.379,1.379,0,0,0-.549,1.121c0,.124.095.185.285.185a.662.662,0,0,1,.513.282.979.979,0,0,1,.23.631.905.905,0,0,1-1.019,1.028A1.163,1.163,0,0,1,.347,53.6,1.278,1.278,0,0,1,0,52.683a2.48,2.48,0,0,1,.864-1.891,3.829,3.829,0,0,1,2.661-.865q2.569,0,3.151,1.4a6.816,6.816,0,0,1,.212,2.125v4.365q0,1.075.022,1.262.117.839.678.839a1.381,1.381,0,0,0,1.073-.466q.235-.257.35-.256c.078,0,.116.048.116.139M5.021,56.861v-1.7A5.91,5.91,0,0,0,2.548,56.2a2.143,2.143,0,0,0-.75,1.718,1.781,1.781,0,0,0,.425,1.225,1.374,1.374,0,0,0,1.072.479A1.786,1.786,0,0,0,4.881,58.5a5.157,5.157,0,0,0,.14-1.635" transform="translate(0 -1.119)" fill="#fff"/>
      <path id="Path_2" data-name="Path 2" d="M18.631,60.084c0,.141-.1.21-.3.21h-.28q-.045,0-1.238-.046h-.723q-.188,0-1.869.036c-.093.006-.187.01-.28.01-.233.017-.349-.05-.349-.2,0-.1.084-.154.256-.154h.607c.435,0,.655-.092.655-.28q.021-.141.022-1.82V45.959a3.44,3.44,0,0,0-.047-.841c-.045-.125-.172-.187-.373-.187h-.842c-.215,0-.326-.066-.326-.2s.194-.184.584-.2a5.754,5.754,0,0,0,2.079-.514l.491-.234.185-.07a7.77,7.77,0,0,1,.163,2.056v13.1a7.821,7.821,0,0,0,.024.83.218.218,0,0,0,.163.175,7.382,7.382,0,0,0,.863.048c.358,0,.538.054.538.161" transform="translate(-0.304 -0.98)" fill="#fff"/>
      <path id="Path_3" data-name="Path 3" d="M33.777,59.335c0,.267-.276.542-.826.829a3.415,3.415,0,0,1-1.591.433,1.511,1.511,0,0,1-1.673-1.657,2.894,2.894,0,0,1-2.74,1.726,2.345,2.345,0,0,1-1.649-.594,1.975,1.975,0,0,1-.65-1.529q0-1.915,2.289-3.036a12.6,12.6,0,0,1,2.729-.746v-.586a10.856,10.856,0,0,0-.21-2.707,1.592,1.592,0,0,0-1.679-1.192,2.107,2.107,0,0,0-1.368.444,1.381,1.381,0,0,0-.549,1.121c0,.124.1.185.287.185a.661.661,0,0,1,.512.282.973.973,0,0,1,.229.631.9.9,0,0,1-1.018,1.028A1.161,1.161,0,0,1,25,53.6a1.278,1.278,0,0,1-.347-.922,2.482,2.482,0,0,1,.863-1.891,3.83,3.83,0,0,1,2.661-.865q2.568,0,3.152,1.4a6.878,6.878,0,0,1,.212,2.125v4.365q0,1.075.022,1.262.116.839.676.839a1.376,1.376,0,0,0,1.073-.466c.156-.171.273-.256.351-.256s.117.048.117.139m-4.11-2.474v-1.7A5.921,5.921,0,0,0,27.194,56.2a2.144,2.144,0,0,0-.748,1.718,1.776,1.776,0,0,0,.425,1.225,1.373,1.373,0,0,0,1.07.479A1.783,1.783,0,0,0,29.527,58.5a5.094,5.094,0,0,0,.14-1.635" transform="translate(-0.553 -1.119)" fill="#fff"/>
      <path id="Path_4" data-name="Path 4" d="M54.416,60.259c0,.117-.132.174-.4.174h-4.2c-.2,0-.3-.051-.3-.153s.086-.173.258-.173h.769c.235-.017.37-.071.41-.166a4.245,4.245,0,0,0,.058-.981V53.154a3.814,3.814,0,0,0-.36-1.929,1.319,1.319,0,0,0-1.217-.574,2.024,2.024,0,0,0-1.856,1.283,18.361,18.361,0,0,0-.092,2.593V58.94a8,8,0,0,0,.023.885.369.369,0,0,0,.413.283h.667c.2,0,.3.057.3.173s-.116.153-.351.153h-4.2c-.187,0-.28-.063-.28-.187,0-.076.046-.124.138-.139s.406-.024.935-.024c.25-.015.383-.091.4-.232l.023-.327v-6.5a3.661,3.661,0,0,0-.335-1.863,1.326,1.326,0,0,0-1.2-.512,1.994,1.994,0,0,0-1.425.535,1.771,1.771,0,0,0-.569,1.351V59.15a1.81,1.81,0,0,0,.1.828c.069.084.3.129.678.129h.184a1.44,1.44,0,0,1,.253-.025c.167,0,.252.063.252.188,0,.109-.1.163-.3.163h-.233q-.562-.025-1.752,0H38.914c-.219,0-.327-.063-.327-.187,0-.109.1-.163.3-.163A3.3,3.3,0,0,0,39.918,60a.358.358,0,0,0,.164-.291V53.656a15.5,15.5,0,0,0-.071-2.05q-.07-.3-.676-.3h-.77q-.3,0-.305-.161c0-.093.036-.148.107-.164s.324-.037.76-.07a5.294,5.294,0,0,0,1.344-.281,2.037,2.037,0,0,0,.925-.443q.257-.257.373-.256c.079,0,.125.063.142.187s.03.559.046,1.307a3.153,3.153,0,0,1,2.876-1.494q2.081,0,2.527,1.564a3.125,3.125,0,0,1,2.921-1.564,2.355,2.355,0,0,1,2.339,1.238,5.214,5.214,0,0,1,.326,2.17V59.1a2.209,2.209,0,0,0,.082.876,1.771,1.771,0,0,0,.722.13h.414c.168-.017.253.034.253.152" transform="translate(-0.858 -1.119)" fill="#fff"/>
      <path id="Path_5" data-name="Path 5" d="M69.012,57.842a2.085,2.085,0,0,1-.362.828,5.167,5.167,0,0,1-.734.968,3.586,3.586,0,0,1-2.685,1.028,4.6,4.6,0,0,1-3.513-1.518A5.306,5.306,0,0,1,60.3,55.39a5.765,5.765,0,0,1,1.344-3.9A4.229,4.229,0,0,1,65,49.926a4.1,4.1,0,0,1,2.779.97,3.357,3.357,0,0,1,1.191,2.486,11.811,11.811,0,0,1-1.985.093H65.347q-.164,0-2.8.07a9.975,9.975,0,0,0-.116,1.467,6.19,6.19,0,0,0,.9,3.615A2.926,2.926,0,0,0,65.861,59.9a2.43,2.43,0,0,0,1.495-.421,5.144,5.144,0,0,0,1.214-1.609.284.284,0,0,1,.256-.187c.125,0,.187.055.187.163m-2.03-4.765q-.094-2.8-2.007-2.8-1.895,0-2.36,2.8Z" transform="translate(-1.352 -1.119)" fill="#fff"/>
      <path id="Path_6" data-name="Path 6" d="M85.788,59.781c0,.108-.11.162-.327.162h-.7a3.863,3.863,0,0,0-1.937.452,1.482,1.482,0,0,1-.4.179c-.139,0-.208-.093-.208-.28l.023-.724a3.254,3.254,0,0,1-2.381,1,4.042,4.042,0,0,1-3.235-1.512A5.784,5.784,0,0,1,75.349,55.2a5.849,5.849,0,0,1,1.274-3.915,4.159,4.159,0,0,1,3.327-1.5,2.71,2.71,0,0,1,2.381,1.144V47.29a8.513,8.513,0,0,0-.16-2.195q-.139-.35-.414-.327c-.445.047-.715.07-.806.07-.2,0-.3-.07-.3-.21s.083-.21.254-.21l.835.022a5.291,5.291,0,0,0,2.133-.653.4.4,0,0,1,.163-.048c.156,0,.234.187.234.562v9.2q0,5.536.092,5.931.047.163,1.1.163c.217,0,.327.063.327.187m-3.457-5.861a5.365,5.365,0,0,0-.49-2.872,1.969,1.969,0,0,0-1.612-.794,2.255,2.255,0,0,0-2.007,1.308,7.053,7.053,0,0,0-.748,3.5,8.9,8.9,0,0,0,.655,3.6,2.557,2.557,0,0,0,.828,1.038,1.866,1.866,0,0,0,1.134.41,2.138,2.138,0,0,0,1.306-.431,1.961,1.961,0,0,0,.758-1.039,31.281,31.281,0,0,0,.176-4.717" transform="translate(-1.689 -0.981)" fill="#fff"/>
      <path id="Path_7" data-name="Path 7" d="M100.791,59.335c0,.267-.274.542-.824.829a3.421,3.421,0,0,1-1.591.433A1.511,1.511,0,0,1,96.7,58.94a2.9,2.9,0,0,1-2.74,1.726,2.346,2.346,0,0,1-1.65-.594,1.979,1.979,0,0,1-.651-1.529q0-1.915,2.291-3.036a12.564,12.564,0,0,1,2.729-.746v-.586a10.955,10.955,0,0,0-.21-2.707,1.594,1.594,0,0,0-1.681-1.192,2.105,2.105,0,0,0-1.366.444,1.379,1.379,0,0,0-.549,1.121c0,.124.1.185.285.185a.662.662,0,0,1,.514.282.973.973,0,0,1,.229.631.9.9,0,0,1-1.018,1.028,1.165,1.165,0,0,1-.878-.363,1.286,1.286,0,0,1-.347-.922,2.478,2.478,0,0,1,.865-1.891,3.827,3.827,0,0,1,2.661-.865q2.568,0,3.151,1.4a6.856,6.856,0,0,1,.211,2.125v4.365c0,.717.009,1.138.022,1.262q.117.839.678.839a1.377,1.377,0,0,0,1.073-.466c.156-.171.273-.256.351-.256s.115.048.115.139m-4.108-2.474v-1.7A5.937,5.937,0,0,0,94.208,56.2a2.149,2.149,0,0,0-.746,1.718,1.776,1.776,0,0,0,.424,1.225,1.373,1.373,0,0,0,1.071.479A1.783,1.783,0,0,0,96.543,58.5a5.1,5.1,0,0,0,.14-1.635" transform="translate(-2.055 -1.119)" fill="#fff"/>
      <path id="Path_8" data-name="Path 8" d="M46.616,0c-.52.788-.957,1.63-1.543,2.371-.24.3.221,3.116,0,3.159a6.336,6.336,0,0,0,2.152-.756V1.617c-1.908,2.2-4.4,3.776-6.649,5.594-.284.229.226,3.121,0,3.157a25.136,25.136,0,0,0,7.9-2.884V4.326c-3.675,2.735-7.7,5.207-10.532,8.884-.185.24-.015,1.292-.015,1.578a11.308,11.308,0,0,1,.015,1.58c3.96-1.612,8.157-3.177,11.422-6.022.166-.145.016-1.374.016-1.577a7.6,7.6,0,0,1-.016-1.581A60.717,60.717,0,0,0,38.845,15.9c-.174.174-.015,1.347-.015,1.579a12.431,12.431,0,0,1,.015,1.578c4.324-1.651,9.084-2.581,12.957-5.229V10.67C47.2,15.2,40.712,16.958,35.739,20.992c-.312.254.274,3.1,0,3.159,7.117-1.558,14.646-3.932,20.682-8.124V12.868c-2.88,2.265-5.7,4.6-8.619,6.82-2.678,2.033-5.9,3.315-8.276,5.743-.176.179-.016,1.343-.016,1.577,0,.2.161,1.443.016,1.58a16.082,16.082,0,0,1,9.2-4.04V21.39c-.933,1.428-2.246,2.53-3.308,3.854a3.04,3.04,0,0,0-.87,1.817c-.008.945-.026,1.9.016,2.841,0,.019,0,.037,0,.058.112.053.377-.145.516-.174.232-.048-.184-3.118,0-3.157-.187.038-.505.343-.521.026q0,1.551,0,3.1c1.042-2.01,2.943-3.33,4.166-5.208.185-.281-.13-3.146,0-3.158a16.084,16.084,0,0,0-9.2,4.041v3.157c2.293-2.339,5.367-3.563,7.959-5.5,3.037-2.276,5.953-4.712,8.936-7.058.159-.126.015-1.39.015-1.578a6.98,6.98,0,0,1-.015-1.581c-6.036,4.193-13.565,6.564-20.682,8.124V24.15C40.712,20.116,47.2,18.357,51.8,13.827c.175-.173.016-1.352.016-1.579A7.072,7.072,0,0,1,51.8,10.67c-3.873,2.646-8.633,3.576-12.957,5.229v3.157a60.711,60.711,0,0,1,10.522-8.71V7.188C46.1,10.034,41.9,11.6,37.944,13.21v3.158c2.829-3.678,6.858-6.15,10.532-8.884.154-.117.014-1.4.014-1.58a8.727,8.727,0,0,1-.014-1.578,25.139,25.139,0,0,1-7.9,2.885v3.157c2.246-1.816,4.74-3.4,6.649-5.594.183-.207.016-1.319.016-1.579a7.925,7.925,0,0,1-.016-1.578,6.333,6.333,0,0,1-2.152.754V5.529c.586-.743,1.023-1.583,1.543-2.373.185-.282.017-1.258.017-1.578,0-.3-.183-1.326-.017-1.579" transform="translate(-0.799 0)" fill="#fff"/>
      <path id="Path_9" data-name="Path 9" d="M45.9,24.79a65.189,65.189,0,0,0,.092,8.7c.09.918,2.17,1.1,2.065.045a62.175,62.175,0,0,1-.1-8.308c.035-.985-2.027-1.368-2.06-.433" transform="translate(-1.027 -0.544)" fill="#fff"/>
      <path id="Path_10" data-name="Path 10" d="M37.573,21.109c.313-.3-.33-1.884,0-2.1-2.166,1.452-4.784,1.991-7.192,2.9v2.107a34.446,34.446,0,0,1,5.84-4.834V17.073a22.465,22.465,0,0,1-6.339,3.343v2.1c1.589-2.031,3.8-3.413,5.844-4.932.306-.226-.3-1.945,0-2.1a14.449,14.449,0,0,1-4.384,1.6V19.19a28.551,28.551,0,0,0,3.69-3.1c.265-.3-.3-1.939,0-2.1a3.914,3.914,0,0,1-1.2.419v2.1c.32-.417.573-.874.857-1.316.324-.5-.316-1.616,0-2.1-.284.441-.538.9-.857,1.318-.156.2.15,2.074,0,2.1a3.886,3.886,0,0,0,1.2-.418v-2.1a28.529,28.529,0,0,1-3.69,3.1c-.193.156.156,2.079,0,2.107a14.455,14.455,0,0,0,4.384-1.6v-2.1c-2.047,1.519-4.255,2.9-5.844,4.932-.208.264.24,2.006,0,2.1a22.459,22.459,0,0,0,6.339-3.341c.109-.095.01-.918.01-1.052a4.956,4.956,0,0,1-.01-1.054,34.533,34.533,0,0,0-5.84,4.833c-.236.236.245,2.014,0,2.107,2.408-.911,5.026-1.453,7.192-2.9V19c-2.577,2.5-6.142,3.5-8.917,5.73-.208.168.184,2.066,0,2.1a32.809,32.809,0,0,0,11.48-4.508V20.225c-1.667,1.312-3.3,2.662-4.993,3.941-1.427,1.078-3.1,1.751-4.385,3.03-.116.117-.01.9-.01,1.054,0,.127.106.965.01,1.053a9.123,9.123,0,0,1,5.1-2.243V24.954a10.956,10.956,0,0,1-1.19,1.409c-.321.333-1.107,1.024-1.125,1.521-.02.513-.009,1.03-.007,1.546,0,.407-.12.679.3.539.224-.078-.2-2.039,0-2.106-.18.061-.252.194-.293-.016v2.1c.6-1.1,1.619-1.857,2.313-2.89.128-.189-.094-2.095,0-2.106a9.128,9.128,0,0,0-5.1,2.242V29.3c1.28-1.278,2.952-1.962,4.385-3.031,1.7-1.268,3.326-2.629,4.993-3.941.334-.265-.327-1.881,0-2.106a32.811,32.811,0,0,1-11.48,4.509v2.1" transform="translate(-0.641 -0.294)" fill="#fff"/>
      <path id="Path_11" data-name="Path 11" d="M34.347,27.231a36.812,36.812,0,0,0,.051,4.816c.043.459,1.083.553,1.032.023a35.6,35.6,0,0,1-.055-4.624c.019-.492-1.012-.682-1.028-.215" transform="translate(-0.769 -0.605)" fill="#fff"/>
      <path id="Path_12" data-name="Path 12" d="M57.324,26.405l.048-.827a5.6,5.6,0,0,0-.478.8c-.024.429.144.006.43.023" transform="translate(-1.275 -0.574)" fill="#fff"/>
      <path id="Path_13" data-name="Path 13" d="M53.559,11.616a18.643,18.643,0,0,0,4.689-1.477c0-.02,0-.038,0-.057l.14-2.438c.029-.5.012-1.018.012-1.522,0-.205-.165-1.435-.017-1.58C56.9,5.995,55.172,7.156,53.559,8.459c-.162.129-.016,1.385-.016,1.577a6.308,6.308,0,0,1,.016,1.58c1.613-1.3,3.343-2.464,4.829-3.915l0-3.1q-.066,1.136-.131,2.275c-.022.36-1.633.778-2,.908a15.049,15.049,0,0,1-2.7.677c-.183.028.138,3.135,0,3.157" transform="translate(-1.199 -0.102)" fill="#fff"/>
      <path id="Path_14" data-name="Path 14" d="M57.325,7.61A6.951,6.951,0,0,0,58.494,7.3c0-.019,0-.039,0-.057l.094-1.635c.03-.505.012-1.017.012-1.523,0-.371,0-.742,0-1.115a2.551,2.551,0,0,1-.012-.462c-.428.641-.772,1.34-1.263,1.941a1.855,1.855,0,0,0-.011.462c0,.371,0,.743,0,1.115s0,.745,0,1.117a2.74,2.74,0,0,1,.011.462c.491-.6.835-1.3,1.263-1.941q0-1.55,0-3.1-.031.559-.064,1.115c-.011.167-.02.333-.029.5,0-.011-.463.117-.518.132-.212.057-.431.1-.648.138a13.1,13.1,0,0,0-.015,1.578c0,.087.042,1.576.015,1.58" transform="translate(-1.284 -0.057)" fill="#fff"/>
      <path id="Path_15" data-name="Path 15" d="M58.517,4.232c-.006.118-.013.234-.02.353-.03.5-.012,1.017-.012,1.522,0,.372,0,.745,0,1.117a2.934,2.934,0,0,1,.01.46c.214-.213.419-.432.615-.663,0-.019,0-.036,0-.056,0-.135.006-.271.007-.406,0-.371,0-.743,0-1.117s0-.743,0-1.115c0,.022-.023-.454-.011-.461a3.676,3.676,0,0,1-.593.309,2.888,2.888,0,0,0-.011.462c0,.372-.006.746-.006,1.116s0,.743.006,1.115c0-.029.017.461.011.462a3.531,3.531,0,0,0,.593-.31V3.866c-.2.228-.4.447-.615.662q0,1.55,0,3.1c.008-.117.014-.235.021-.351.035-.644.013-1.3.012-1.942,0-.315,0-.63-.008-.943,0,.107,0-.375-.014-.159" transform="translate(-1.311 -0.087)" fill="#fff"/>
      <path id="Path_16" data-name="Path 16" d="M57.329,27.891q.023-.412.048-.826c.028-.5.012-1.017.012-1.522q0-.559,0-1.116a2.463,2.463,0,0,1-.012-.462,6.5,6.5,0,0,0-.4.643.773.773,0,0,0-.092.422c-.011.733-.009,1.467,0,2.2a5.759,5.759,0,0,0,.02.842c0,.05.04.048.076.028.121-.063.2-.152.349-.153.027,0,.022-3.158,0-3.158a.5.5,0,0,0-.291.114c-.063.045-.123.09-.139-.016,0,.02,0,.038,0,.056a.319.319,0,0,1,0-.033q0,.971.011,1.942c0,.338-.007.676-.009,1.014,0,.019,0,.037,0,.055a6.25,6.25,0,0,1,.478-.8q0-1.55,0-3.1-.025.414-.048.825c-.038.644-.013,1.3-.012,1.941,0,.317,0,.631.008.944,0-.106,0,.376.013.159" transform="translate(-1.275 -0.537)" fill="#fff"/>
      <path id="Path_17" data-name="Path 17" d="M49.509,23.135a67.057,67.057,0,0,0,8.048-2.328c0-.02,0-.039,0-.057q.073-1.29.148-2.578c.029-.5.011-1.017.011-1.522a8.669,8.669,0,0,1-.016-1.58,55.081,55.081,0,0,0-8.2,4.906c-.162.13-.016,1.386-.016,1.578a6.262,6.262,0,0,1,.016,1.58,54.909,54.909,0,0,1,8.2-4.906l0-3.1c-.028.464-.054.928-.08,1.391-.018.3-.036.6-.052.894-.026.442-.372.365-.776.507a63.509,63.509,0,0,1-7.285,2.059c-.244.053.2,3.114,0,3.158" transform="translate(-1.108 -0.338)" fill="#fff"/>
      <path id="Path_18" data-name="Path 18" d="M52.68,26.885A13.582,13.582,0,0,1,57.439,24.2l0-.057c.013-.224.025-.449.039-.672.029-.505.011-1.018.011-1.523a7.774,7.774,0,0,1-.014-1.578,22.994,22.994,0,0,0-4.8,3.357c-.176.179-.018,1.345-.018,1.578,0,.213.168,1.426.018,1.579a22.99,22.99,0,0,1,4.8-3.356q0-1.551-.006-3.1c-.012.207-.024.415-.036.622,0,.071-1.719.7-1.9.783a11.274,11.274,0,0,0-2.86,1.9c-.172.16-.018,1.362-.018,1.578,0,.2.161,1.445.018,1.579" transform="translate(-1.179 -0.457)" fill="#fff"/>
      <path id="Path_19" data-name="Path 19" d="M66.621,13.287A38.843,38.843,0,0,1,57.74,17.61c0,.019,0,.037,0,.056q-.076,1.3-.152,2.6c-.027.5-.011,1.017-.011,1.521a7.884,7.884,0,0,1,.017,1.581c3.225-1.962,6.071-4.6,9.031-6.926.161-.125.017-1.39.017-1.579a6.491,6.491,0,0,1-.017-1.579c-2.96,2.331-5.806,4.965-9.031,6.925l0,3.1c.03-.537.062-1.07.093-1.608.017-.274.031-.546.047-.822.018-.3,1.154-.544,1.465-.665a35.392,35.392,0,0,0,7.423-3.774c.151-.1.017-1.409.017-1.579a7.083,7.083,0,0,1-.017-1.579" transform="translate(-1.291 -0.298)" fill="#fff"/>
      <path id="Path_20" data-name="Path 20" d="M57.382,27.042c.892-1.23,2.1-2.185,2.933-3.463.183-.282-.129-3.146,0-3.158a11.791,11.791,0,0,0-2.769.621c0,.02,0,.039,0,.057q-.082,1.424-.164,2.842c-.055.949.051,2.3.009,3.044q.062-1.073.123-2.144c.01-.167.021-.332.029-.5.014-.25-.033-.128.252-.225a10.843,10.843,0,0,1,2.524-.539V20.422c-.828,1.278-2.041,2.234-2.933,3.464a1.764,1.764,0,0,0-.012.462c0,.371-.006.742-.006,1.114s0,.745.006,1.117a2.551,2.551,0,0,1,.012.462" transform="translate(-1.286 -0.458)" fill="#fff"/>
      <path id="Path_21" data-name="Path 21" d="M60.7,8.506c-.929.585-1.823,1.215-2.7,1.878q0,1.551,0,3.1.085-1.456.166-2.91c.031-.505.013-1.017.013-1.523a6.8,6.8,0,0,1-.016-1.579,31.455,31.455,0,0,0-6.819,5.96c-.186.24-.016,1.294-.016,1.578a11.626,11.626,0,0,1,.016,1.58,58.532,58.532,0,0,0,6.588-3v-3.16a62.991,62.991,0,0,0-5.852,5.2c-.175.176-.015,1.349-.015,1.58a12.433,12.433,0,0,1,.015,1.578c1.887-.717,3.822-1.288,5.725-1.962,0-.019,0-.037,0-.057q.069-1.213.139-2.425c.031-.533-.077-.722.375-.988a15.753,15.753,0,0,0,2.369-1.7c.166-.144.016-1.374.016-1.578a6.041,6.041,0,0,1-.016-1.58,16.78,16.78,0,0,1-1.728,1.3c-.238.158-.961.42-.978.712q-.057.99-.115,1.981c-.019.329-.038.66-.057.989-.024.431-.753.446-1.126.574-1.538.523-3.089,1-4.608,1.574v3.158a62.97,62.97,0,0,1,5.852-5.2c.157-.125.015-1.393.015-1.58a8.328,8.328,0,0,1-.015-1.58,58.028,58.028,0,0,1-6.588,3v3.158a31.4,31.4,0,0,1,6.819-5.959q0-1.551,0-3.1Q58.089,8.985,58,10.441c-.026.506-.011,1.018-.011,1.523a6.6,6.6,0,0,1,.016,1.58c.875-.664,1.769-1.3,2.7-1.88.142-.088.016-1.421.016-1.578a7.591,7.591,0,0,1-.016-1.58" transform="translate(-1.149 -0.168)" fill="#fff"/>
      <path id="Path_22" data-name="Path 22" d="M58.353,7.072c-.008.143-.018.286-.024.429-.029.5-.013,1.017-.013,1.523,0,.372,0,.744,0,1.116a4.315,4.315,0,0,1,.012.461c.6-.432,1.206-.868,1.8-1.312a2.129,2.129,0,0,0,.012-.462c0-.372,0-.744,0-1.117s0-.744,0-1.115c0,.027-.02-.457-.012-.461q-.871.468-1.776.882a3,3,0,0,0-.011.462c0,.372,0,.745,0,1.117s0,.743,0,1.114c0-.029.018.461.011.463q.9-.414,1.776-.883V6.134c-.594.444-1.2.878-1.8,1.311l0,3.1c.01-.144.018-.286.026-.43.036-.644.013-1.3.011-1.941,0-.317,0-.631-.006-.944,0,.107,0-.375-.014-.159" transform="translate(-1.307 -0.138)" fill="#fff"/>
      <path id="Path_23" data-name="Path 23" d="M57.962,13.822c-.023.409-.048.817-.07,1.225-.029.506-.011,1.019-.011,1.524a8.228,8.228,0,0,1,.013,1.579A23.172,23.172,0,0,0,62.849,14.6c.173-.17.015-1.352.015-1.578a7.021,7.021,0,0,1-.015-1.579,21.722,21.722,0,0,1-4.884,2.319,8.541,8.541,0,0,0-.015,1.58,13.19,13.19,0,0,1,.015,1.577A21.68,21.68,0,0,0,62.849,14.6V11.446a23.164,23.164,0,0,1-4.955,3.545q0,1.55,0,3.1c.024-.409.049-.816.071-1.227.055-.949-.051-2.3-.008-3.044" transform="translate(-1.297 -0.257)" fill="#fff"/>
      <path id="Path_24" data-name="Path 24" d="M57.623,23.345A54.286,54.286,0,0,0,57.7,30.5c.091.915,2.17,1.1,2.067.042a51.019,51.019,0,0,1-.08-6.763c.035-.986-2.028-1.37-2.06-.435" transform="translate(-1.29 -0.512)" fill="#fff"/>
      <path id="Path_25" data-name="Path 25" d="M33.453,34.63a25.8,25.8,0,0,1,4.966-2.1L35.4,32.162c-2.377,2.472-4.906,4.946-6.535,8-.3.549.864.59,1.106.588a5.423,5.423,0,0,0,2.477-.618c1.969-1.044,3.8-2.244,5.868-3.1a54.032,54.032,0,0,1,6.5-2.1,100.894,100.894,0,0,1,13.917-2.862c.7-.089,2.055-.279,2.437-1,.363-.685-1.378-.587-1.615-.557A119.329,119.329,0,0,0,43.446,33.82a67.112,67.112,0,0,0-7.452,2.443,70.822,70.822,0,0,0-6.656,3.485l3.583-.03c1.55-2.9,3.929-5.231,6.187-7.585.447-.462,0-.712-.494-.771a5.5,5.5,0,0,0-2.521.4,30.182,30.182,0,0,0-5.756,2.485c-.655.408-.6.88.2.979a4.821,4.821,0,0,0,2.917-.594" transform="translate(-0.646 -0.684)" fill="#fff"/>
      <rect id="Rectangle_1" data-name="Rectangle 1" width="1.049" height="4.531" transform="translate(9.282 68.933)" fill="#fff"/>
      <path id="Path_26" data-name="Path 26" d="M15.823,70.515v4.531h-.861L12.7,72.3v2.751H11.667V70.515h.867l2.252,2.751V70.515Z" transform="translate(-0.262 -1.581)" fill="#fff"/>
      <path id="Path_27" data-name="Path 27" d="M17.017,70.515h2.059a2.882,2.882,0,0,1,1.3.283,2.114,2.114,0,0,1,.881.793,2.424,2.424,0,0,1,0,2.382,2.121,2.121,0,0,1-.881.793,2.9,2.9,0,0,1-1.3.281H17.017Zm2.007,3.671a1.521,1.521,0,0,0,1.084-.379,1.5,1.5,0,0,0,0-2.051,1.52,1.52,0,0,0-1.084-.379h-.958v2.81Z" transform="translate(-0.381 -1.581)" fill="#fff"/>
      <path id="Path_28" data-name="Path 28" d="M26,74.2v.842H22.486V70.515h3.424v.842H23.53v.984h2.1v.815h-2.1V74.2Z" transform="translate(-0.504 -1.581)" fill="#fff"/>
      <path id="Path_29" data-name="Path 29" d="M29.936,70.716a1.547,1.547,0,0,1,.683.57,1.707,1.707,0,0,1,0,1.744,1.529,1.529,0,0,1-.683.57,2.559,2.559,0,0,1-1.045.2h-.913v1.249H26.929V70.516h1.962a2.51,2.51,0,0,1,1.045.2m-.385,2.023a.812.812,0,0,0,0-1.165,1.1,1.1,0,0,0-.719-.2h-.854v1.572h.854a1.1,1.1,0,0,0,.719-.2" transform="translate(-0.604 -1.581)" fill="#fff"/>
      <path id="Path_30" data-name="Path 30" d="M35.219,74.2v.842H31.711V70.515h3.424v.842H32.753v.984h2.1v.815h-2.1V74.2Z" transform="translate(-0.711 -1.581)" fill="#fff"/>
      <path id="Path_31" data-name="Path 31" d="M40.31,70.515v4.531h-.861L37.189,72.3v2.751H36.154V70.515h.867l2.252,2.751V70.515Z" transform="translate(-0.81 -1.581)" fill="#fff"/>
      <path id="Path_32" data-name="Path 32" d="M41.5,70.515h2.058a2.884,2.884,0,0,1,1.305.283,2.106,2.106,0,0,1,.88.793,2.418,2.418,0,0,1,0,2.382,2.112,2.112,0,0,1-.88.793,2.9,2.9,0,0,1-1.305.281H41.5Zm2.006,3.671a1.521,1.521,0,0,0,1.084-.379,1.5,1.5,0,0,0,0-2.051,1.52,1.52,0,0,0-1.084-.379h-.958v2.81Z" transform="translate(-0.93 -1.581)" fill="#fff"/>
      <path id="Path_33" data-name="Path 33" d="M50.482,74.2v.842H46.973V70.515H50.4v.842H48.016v.984h2.1v.815h-2.1V74.2Z" transform="translate(-1.053 -1.581)" fill="#fff"/>
      <path id="Path_34" data-name="Path 34" d="M55.572,70.515v4.531h-.86L52.453,72.3v2.751H51.416V70.515h.868l2.251,2.751V70.515Z" transform="translate(-1.153 -1.581)" fill="#fff"/>
      <path id="Path_35" data-name="Path 35" d="M57.694,71.37h-1.45v-.855h3.948v.855h-1.45v3.677H57.694Z" transform="translate(-1.261 -1.581)" fill="#fff"/>
      <path id="Path_36" data-name="Path 36" d="M64.869,71.4v1.2h2.1v.841h-2.1v1.651H63.82V70.554h3.424V71.4Z" transform="translate(-1.431 -1.582)" fill="#fff"/>
      <path id="Path_37" data-name="Path 37" d="M68.052,70.553H69.1V74.23h2.271v.854h-3.32Z" transform="translate(-1.526 -1.582)" fill="#fff"/>
      <path id="Path_38" data-name="Path 38" d="M72.887,74.857a2.311,2.311,0,0,1,0-4.078,2.8,2.8,0,0,1,2.541,0,2.312,2.312,0,0,1,0,4.078,2.806,2.806,0,0,1-2.541,0m2-.774a1.328,1.328,0,0,0,.508-.515,1.625,1.625,0,0,0,0-1.5,1.318,1.318,0,0,0-.508-.514,1.514,1.514,0,0,0-1.45,0,1.318,1.318,0,0,0-.508.514,1.618,1.618,0,0,0,0,1.5,1.327,1.327,0,0,0,.508.515,1.514,1.514,0,0,0,1.45,0" transform="translate(-1.607 -1.58)" fill="#fff"/>
      <path id="Path_39" data-name="Path 39" d="M78.476,74.857a2.272,2.272,0,0,1-.888-.839,2.416,2.416,0,0,1,0-2.4,2.255,2.255,0,0,1,.888-.838,2.8,2.8,0,0,1,2.54,0,2.311,2.311,0,0,1,0,4.078,2.8,2.8,0,0,1-2.54,0m2-.774a1.327,1.327,0,0,0,.508-.515,1.625,1.625,0,0,0,0-1.5,1.318,1.318,0,0,0-.508-.514,1.514,1.514,0,0,0-1.45,0,1.318,1.318,0,0,0-.508.514,1.625,1.625,0,0,0,0,1.5,1.327,1.327,0,0,0,.508.515,1.514,1.514,0,0,0,1.45,0" transform="translate(-1.732 -1.58)" fill="#fff"/>
      <path id="Path_40" data-name="Path 40" d="M86.035,75.085l-.874-1.263H84.2v1.263H83.148V70.553h1.961a2.515,2.515,0,0,1,1.046.2,1.5,1.5,0,0,1,.923,1.443,1.479,1.479,0,0,1-.933,1.431l1.017,1.457Zm-.265-3.473a1.1,1.1,0,0,0-.719-.2H84.2v1.58h.854a1.1,1.1,0,0,0,.719-.206.819.819,0,0,0,0-1.169" transform="translate(-1.864 -1.582)" fill="#fff"/>
      <path id="Path_41" data-name="Path 41" d="M88.457,75.015a2.424,2.424,0,0,1-.806-.378l.356-.79a2.4,2.4,0,0,0,.693.343,2.606,2.606,0,0,0,.8.13,1.283,1.283,0,0,0,.66-.133.4.4,0,0,0,.214-.353.338.338,0,0,0-.127-.269.955.955,0,0,0-.324-.172q-.2-.065-.534-.142A7.367,7.367,0,0,1,88.545,73a1.37,1.37,0,0,1-.567-.395,1.065,1.065,0,0,1-.236-.725,1.258,1.258,0,0,1,.213-.715,1.44,1.44,0,0,1,.644-.508,2.626,2.626,0,0,1,1.052-.188,3.458,3.458,0,0,1,.848.1,2.5,2.5,0,0,1,.725.3l-.324.8a2.526,2.526,0,0,0-1.256-.356,1.185,1.185,0,0,0-.65.142.438.438,0,0,0-.211.376.367.367,0,0,0,.243.346,3.9,3.9,0,0,0,.741.224,7.534,7.534,0,0,1,.848.245,1.4,1.4,0,0,1,.567.388,1.044,1.044,0,0,1,.237.719,1.24,1.24,0,0,1-.217.71,1.462,1.462,0,0,1-.65.507,2.659,2.659,0,0,1-1.056.188,3.687,3.687,0,0,1-1.039-.146" transform="translate(-1.965 -1.58)" fill="#fff"/>
      <path id="Path_42" data-name="Path 42" d="M14.439,83.621l.378-.45a1.647,1.647,0,0,0,1.129.465c.387,0,.632-.179.632-.45v-.011c0-.255-.143-.393-.807-.546-.762-.184-1.191-.409-1.191-1.068v-.01A1.094,1.094,0,0,1,15.8,80.515a1.981,1.981,0,0,1,1.3.45l-.337.475a1.624,1.624,0,0,0-.971-.369c-.368,0-.582.19-.582.424v.01c0,.277.163.4.847.562.757.184,1.151.455,1.151,1.047v.011c0,.67-.527,1.068-1.278,1.068a2.2,2.2,0,0,1-1.492-.572" transform="translate(-0.324 -1.805)" fill="#fff"/>
      <path id="Path_43" data-name="Path 43" d="M18.43,80.567h2.651v.562H19.059v.93h1.793v.562H19.059v.96h2.048v.562H18.43Z" transform="translate(-0.413 -1.806)" fill="#fff"/>
      <path id="Path_44" data-name="Path 44" d="M22.166,82.364v-.01a1.81,1.81,0,0,1,1.845-1.85,1.863,1.863,0,0,1,1.4.556l-.4.465a1.428,1.428,0,0,0-1-.445,1.2,1.2,0,0,0-1.18,1.262v.011A1.21,1.21,0,0,0,24,83.626a1.406,1.406,0,0,0,1.027-.465l.4.409a1.843,1.843,0,0,1-1.45.633,1.8,1.8,0,0,1-1.819-1.839" transform="translate(-0.497 -1.805)" fill="#fff"/>
      <path id="Path_45" data-name="Path 45" d="M27.465,81.15H26.33v-.583h2.9v.583H28.1v2.993h-.633Z" transform="translate(-0.59 -1.806)" fill="#fff"/>
      <path id="Path_46" data-name="Path 46" d="M30.218,82.364v-.01a1.87,1.87,0,0,1,3.739-.011v.011a1.87,1.87,0,0,1-3.739.01m3.08,0v-.01a1.226,1.226,0,0,0-1.216-1.273,1.208,1.208,0,0,0-1.205,1.262v.011a1.226,1.226,0,0,0,1.216,1.272A1.208,1.208,0,0,0,33.3,82.364" transform="translate(-0.677 -1.805)" fill="#fff"/>
      <path id="Path_47" data-name="Path 47" d="M35.223,80.568h1.593a1.441,1.441,0,0,1,1.032.357,1.082,1.082,0,0,1,.3.771v.011a1.072,1.072,0,0,1-.853,1.082l.966,1.354h-.741L36.638,82.9h-.786v1.246h-.629Zm1.548,1.772c.449,0,.735-.236.735-.6v-.01c0-.383-.276-.592-.74-.592h-.914v1.2Z" transform="translate(-0.79 -1.806)" fill="#fff"/>
      <path id="Path_48" data-name="Path 48" d="M43.05,81.119h-1.8v-.551h2.512v.474l-1.614,3.1h-.7Z" transform="translate(-0.925 -1.806)" fill="#fff"/>
      <path id="Path_49" data-name="Path 49" d="M44.711,83.576l.439-.409a1.166,1.166,0,0,0,.94.47.56.56,0,0,0,.618-.542v-.01c0-.353-.322-.551-.822-.551h-.291l-.1-.394.966-1.027H44.91v-.546h2.365v.47l-1,1.022c.543.071,1.053.342,1.053,1.007v.01A1.144,1.144,0,0,1,46.08,84.2a1.7,1.7,0,0,1-1.369-.629" transform="translate(-1.002 -1.806)" fill="#fff"/>
      <path id="Path_50" data-name="Path 50" d="M48.3,84.689c.312-.061.459-.22.434-.48h-.26v-.7h.679V84.1a.744.744,0,0,1-.787.849Z" transform="translate(-1.083 -1.872)" fill="#fff"/>
      <path id="Path_51" data-name="Path 51" d="M52.193,82.364v-.01a1.822,1.822,0,0,1,1.844-1.85,1.929,1.929,0,0,1,1.374.485l-.4.475a1.4,1.4,0,0,0-1-.383,1.21,1.21,0,0,0-1.159,1.262v.011a1.194,1.194,0,0,0,1.216,1.277,1.461,1.461,0,0,0,.863-.271v-.67h-.914v-.546h1.522v1.5a2.28,2.28,0,0,1-1.492.556,1.774,1.774,0,0,1-1.854-1.839" transform="translate(-1.17 -1.805)" fill="#fff"/>
      <path id="Path_52" data-name="Path 52" d="M56.805,82.626V80.567h.629V82.6c0,.664.342,1.022.9,1.022s.9-.337.9-1V80.567h.629v2.028a1.427,1.427,0,0,1-1.538,1.6,1.409,1.409,0,0,1-1.522-1.573" transform="translate(-1.273 -1.806)" fill="#fff"/>
      <path id="Path_53" data-name="Path 53" d="M61.221,80.568h1.592a1.439,1.439,0,0,1,1.032.357,1.082,1.082,0,0,1,.3.771v.011a1.072,1.072,0,0,1-.853,1.082l.967,1.354h-.742L62.635,82.9h-.786v1.246h-.628Zm1.548,1.772c.45,0,.735-.236.735-.6v-.01c0-.383-.276-.592-.74-.592h-.915v1.2Z" transform="translate(-1.372 -1.806)" fill="#fff"/>
      <path id="Path_54" data-name="Path 54" d="M65.338,82.626V80.567h.628V82.6c0,.664.342,1.022.9,1.022s.9-.337.9-1V80.567H68.4v2.028a1.428,1.428,0,0,1-1.538,1.6,1.409,1.409,0,0,1-1.522-1.573" transform="translate(-1.465 -1.806)" fill="#fff"/>
      <path id="Path_55" data-name="Path 55" d="M69.586,82.364v-.01a1.822,1.822,0,0,1,1.845-1.85,1.928,1.928,0,0,1,1.374.485l-.4.475a1.4,1.4,0,0,0-1-.383,1.211,1.211,0,0,0-1.16,1.262v.011a1.194,1.194,0,0,0,1.216,1.277,1.461,1.461,0,0,0,.863-.271v-.67H71.41v-.546h1.522v1.5a2.28,2.28,0,0,1-1.492.556,1.774,1.774,0,0,1-1.854-1.839" transform="translate(-1.56 -1.805)" fill="#fff"/>
      <path id="Path_56" data-name="Path 56" d="M74.242,80.568h1.593a1.441,1.441,0,0,1,1.032.357,1.082,1.082,0,0,1,.3.771v.011a1.072,1.072,0,0,1-.853,1.082l.966,1.354h-.741L75.657,82.9h-.786v1.246h-.629ZM75.79,82.34c.449,0,.735-.236.735-.6v-.01c0-.383-.276-.592-.74-.592h-.914v1.2Z" transform="translate(-1.664 -1.806)" fill="#fff"/>
      <path id="Path_57" data-name="Path 57" d="M79.677,80.542h.582l1.574,3.6h-.665l-.363-.863H79.114l-.368.863H78.1Zm.9,2.181-.618-1.43-.613,1.43Z" transform="translate(-1.751 -1.806)" fill="#fff"/>
      <path id="Path_58" data-name="Path 58" d="M82.966,80.567h.67l1.088,1.691,1.088-1.691h.669v3.576h-.628V81.579l-1.129,1.685H84.7l-1.119-1.676v2.554h-.618Z" transform="translate(-1.86 -1.806)" fill="#fff"/>
    </g>
  </g>
</svg>